<svg width="245" height="175" viewBox="0 0 245 175" fill="none" xmlns="http://www.w3.org/2000/svg">
<g filter="url(#filter0_d_698_2603)">
<rect x="6.71875" width="232.283" height="162.025" rx="10" fill="url(#paint0_linear_698_2603)"/>
</g>
<rect opacity="0.6" x="30.7344" y="35.1292" width="44.4492" height="72.4092" rx="4" fill="white"/>
<rect opacity="0.6" x="84.1445" y="35.1292" width="146.969" height="111.123" rx="4" fill="white"/>
<rect opacity="0.6" x="89.8789" y="80.2954" width="64.5231" height="58.7877" rx="4" stroke="#59B3E3" stroke-dasharray="2 2"/>
<rect opacity="0.6" x="117.84" y="93.2" width="10.0369" height="12.1877" rx="2" fill="url(#paint1_linear_698_2603)"/>
<rect opacity="0.6" x="188.098" y="93.2" width="10.0369" height="12.1877" rx="2" fill="url(#paint2_linear_698_2603)"/>
<rect opacity="0.6" x="160.855" y="80.2954" width="64.5231" height="58.7877" rx="4" stroke="#59B3E3" stroke-dasharray="2 2"/>
<rect x="91.0977" y="58.5708" width="62.8062" height="4.73538" rx="2.36769" stroke="url(#paint3_linear_698_2603)"/>
<rect x="230.754" y="25.0923" width="21.5077" height="7.16923" rx="3.58462" transform="rotate(-180 230.754 25.0923)" fill="url(#paint4_linear_698_2603)"/>
<circle opacity="0.6" cx="213.906" cy="6.09386" r="3.22615" fill="white"/>
<circle cx="38.6213" cy="44.4492" r="1.43385" fill="url(#paint5_linear_698_2603)"/>
<circle cx="38.6213" cy="75.2769" r="1.43385" fill="url(#paint6_linear_698_2603)"/>
<circle cx="38.6213" cy="98.9354" r="1.43385" fill="url(#paint7_linear_698_2603)"/>
<path opacity="0.5" d="M43.6367 98.9354H52.9567" stroke="#CACACA" stroke-width="3" stroke-linecap="round"/>
<path opacity="0.5" d="M43.6367 58.0708H64.4275" stroke="#CACACA" stroke-width="3" stroke-linecap="round"/>
<path opacity="0.5" d="M43.6367 65.9569H64.4275" stroke="#CACACA" stroke-width="3" stroke-linecap="round"/>
<path opacity="0.5" d="M43.6367 89.6154H64.4275" stroke="#CACACA" stroke-width="3" stroke-linecap="round"/>
<path opacity="0.6" d="M220.719 6.4523H230.039" stroke="white" stroke-width="3" stroke-linecap="round"/>
<path opacity="0.5" d="M43.6367 50.9016H64.4275" stroke="#CACACA" stroke-width="3" stroke-linecap="round"/>
<path opacity="0.5" d="M43.6367 82.4462H64.4275" stroke="#CACACA" stroke-width="3" stroke-linecap="round"/>
<path opacity="0.5" d="M43.6367 44.4492H64.4275" stroke="#CACACA" stroke-width="3" stroke-linecap="round"/>
<path opacity="0.5" d="M90.5977 43.7323H107.804" stroke="#CACACA" stroke-width="3" stroke-linecap="round"/>
<path opacity="0.5" d="M90.5977 52.3354H112.105" stroke="#CACACA" stroke-width="3" stroke-linecap="round"/>
<path opacity="0.5" d="M90.5977 69.5415H112.105" stroke="#CACACA" stroke-width="3" stroke-linecap="round"/>
<path opacity="0.5" d="M98.4844 111.84H147.235" stroke="#CACACA" stroke-width="3" stroke-linecap="round"/>
<path opacity="0.5" d="M167.309 111.84H216.059" stroke="#CACACA" stroke-width="3" stroke-linecap="round"/>
<path opacity="0.6" d="M34.6758 23.6584H58.3342" stroke="#FAFDFF" stroke-width="5" stroke-linecap="round"/>
<path d="M105.652 122.594H139.348" stroke="url(#paint8_linear_698_2603)" stroke-width="8" stroke-linecap="round"/>
<path d="M175.91 122.594H209.606" stroke="url(#paint9_linear_698_2603)" stroke-width="8" stroke-linecap="round"/>
<path opacity="0.5" d="M43.6367 75.2769H64.4275" stroke="#CACACA" stroke-width="3" stroke-linecap="round"/>
<path opacity="0.6" d="M9.94141 25.0923H19.9783" stroke="white" stroke-width="3" stroke-linecap="round"/>
<rect opacity="0.6" x="11.375" y="15.7723" width="6.45231" height="6.45231" rx="1" fill="white"/>
<path opacity="0.6" d="M9.94141 41.5815H19.9783" stroke="white" stroke-width="3" stroke-linecap="round"/>
<rect opacity="0.6" x="11.375" y="32.2615" width="6.45231" height="6.45231" rx="1" fill="white"/>
<path opacity="0.6" d="M9.94141 58.0708H19.9783" stroke="white" stroke-width="3" stroke-linecap="round"/>
<rect opacity="0.6" x="11.375" y="48.7508" width="6.45231" height="6.45231" rx="1" fill="white"/>
<path opacity="0.6" d="M9.94141 74.56H19.9783" stroke="white" stroke-width="3" stroke-linecap="round"/>
<rect opacity="0.6" x="11.375" y="65.24" width="6.45231" height="6.45231" rx="1" fill="white"/>
<path opacity="0.6" d="M9.94141 91.0492H19.9783" stroke="white" stroke-width="3" stroke-linecap="round"/>
<rect opacity="0.6" x="11.375" y="81.7292" width="6.45231" height="6.45231" rx="1" fill="white"/>
<path opacity="0.6" d="M9.94141 107.538H19.9783" stroke="white" stroke-width="3" stroke-linecap="round"/>
<rect opacity="0.6" x="11.375" y="98.2185" width="6.45231" height="6.45231" rx="1" fill="white"/>
<path opacity="0.6" d="M9.94141 124.028H19.9783" stroke="white" stroke-width="3" stroke-linecap="round"/>
<rect opacity="0.6" x="11.375" y="114.708" width="6.45231" height="6.45231" rx="1" fill="white"/>
<path opacity="0.3" d="M239 12.5461H6" stroke="white" stroke-width="0.5" stroke-linecap="round"/>
<path opacity="0.3" d="M230.756 30.8277L30.7344 30.8277" stroke="white" stroke-width="0.5" stroke-linecap="round"/>
<path opacity="0.3" d="M23.207 162.025L23.207 12.9046" stroke="white" stroke-width="0.5" stroke-linecap="round"/>
<path opacity="0.3" d="M6.35843 111.123H22.8477" stroke="white" stroke-width="0.5" stroke-linecap="round"/>
<path opacity="0.3" d="M6.35843 94.6339H22.8477" stroke="white" stroke-width="0.5" stroke-linecap="round"/>
<path opacity="0.3" d="M6.35843 78.1446H22.8477" stroke="white" stroke-width="0.5" stroke-linecap="round"/>
<path opacity="0.3" d="M6.35843 61.6554H22.8477" stroke="white" stroke-width="0.5" stroke-linecap="round"/>
<path opacity="0.3" d="M6.35843 45.1661H22.8477" stroke="white" stroke-width="0.5" stroke-linecap="round"/>
<path opacity="0.3" d="M6.35843 28.6769L22.8477 28.6769" stroke="white" stroke-width="0.5" stroke-linecap="round"/>
<circle cx="116.765" cy="6.09383" r="3.22615" fill="white" fill-opacity="0.6"/>
<rect x="121.426" y="5.01843" width="10.0369" height="2.86769" rx="1.43385" fill="white" fill-opacity="0.6"/>
<circle opacity="0.6" cx="204.945" cy="6.09386" r="3.22615" fill="white"/>
<defs>
<filter id="filter0_d_698_2603" x="0.71875" y="0" width="244.281" height="174.025" filterUnits="userSpaceOnUse" color-interpolation-filters="sRGB">
<feFlood flood-opacity="0" result="BackgroundImageFix"/>
<feColorMatrix in="SourceAlpha" type="matrix" values="0 0 0 0 0 0 0 0 0 0 0 0 0 0 0 0 0 0 127 0" result="hardAlpha"/>
<feOffset dy="6"/>
<feGaussianBlur stdDeviation="3"/>
<feComposite in2="hardAlpha" operator="out"/>
<feColorMatrix type="matrix" values="0 0 0 0 0 0 0 0 0 0 0 0 0 0 0 0 0 0 0.1 0"/>
<feBlend mode="normal" in2="BackgroundImageFix" result="effect1_dropShadow_698_2603"/>
<feBlend mode="normal" in="SourceGraphic" in2="effect1_dropShadow_698_2603" result="shape"/>
</filter>
<linearGradient id="paint0_linear_698_2603" x1="6.71875" y1="81.0122" x2="242.272" y2="81.3958" gradientUnits="userSpaceOnUse">
<stop stop-color="#B4DCFF"/>
<stop offset="1" stop-color="#C8AFFF"/>
</linearGradient>
<linearGradient id="paint1_linear_698_2603" x1="117.529" y1="105.388" x2="127.877" y2="105.388" gradientUnits="userSpaceOnUse">
<stop stop-color="#CAECFF"/>
<stop offset="1" stop-color="#5FB9EA"/>
</linearGradient>
<linearGradient id="paint2_linear_698_2603" x1="187.787" y1="105.388" x2="198.135" y2="105.388" gradientUnits="userSpaceOnUse">
<stop stop-color="#CAECFF"/>
<stop offset="1" stop-color="#5FB9EA"/>
</linearGradient>
<linearGradient id="paint3_linear_698_2603" x1="90.5977" y1="60.9385" x2="155.292" y2="61.7561" gradientUnits="userSpaceOnUse">
<stop stop-color="#B4DCFF"/>
<stop offset="1" stop-color="#C8AFFF"/>
</linearGradient>
<linearGradient id="paint4_linear_698_2603" x1="230.087" y1="32.2615" x2="252.262" y2="32.2615" gradientUnits="userSpaceOnUse">
<stop stop-color="#FFD8D8"/>
<stop offset="1" stop-color="#FDDE78"/>
</linearGradient>
<linearGradient id="paint5_linear_698_2603" x1="37.0986" y1="45.8831" x2="40.0552" y2="45.8831" gradientUnits="userSpaceOnUse">
<stop stop-color="#FFD8D8"/>
<stop offset="1" stop-color="#FDDE78"/>
</linearGradient>
<linearGradient id="paint6_linear_698_2603" x1="37.0986" y1="76.7108" x2="40.0552" y2="76.7108" gradientUnits="userSpaceOnUse">
<stop stop-color="#FFD8D8"/>
<stop offset="1" stop-color="#FDDE78"/>
</linearGradient>
<linearGradient id="paint7_linear_698_2603" x1="37.0986" y1="100.369" x2="40.0552" y2="100.369" gradientUnits="userSpaceOnUse">
<stop stop-color="#FFD8D8"/>
<stop offset="1" stop-color="#FDDE78"/>
</linearGradient>
<linearGradient id="paint8_linear_698_2603" x1="105.652" y1="123.094" x2="139.772" y2="124.4" gradientUnits="userSpaceOnUse">
<stop stop-color="#B4DCFF"/>
<stop offset="1" stop-color="#C8AFFF"/>
</linearGradient>
<linearGradient id="paint9_linear_698_2603" x1="175.91" y1="123.094" x2="210.03" y2="124.4" gradientUnits="userSpaceOnUse">
<stop stop-color="#B4DCFF"/>
<stop offset="1" stop-color="#C8AFFF"/>
</linearGradient>
</defs>
</svg>
