<svg width="60" height="60" viewBox="0 0 60 60" fill="none" xmlns="http://www.w3.org/2000/svg">
<rect x="1" y="1" width="58" height="58" rx="29" fill="url(#paint0_linear_965_3225)" stroke="url(#paint1_linear_965_3225)" stroke-width="2"/>
<path d="M20.3958 15H30.4375C33.4175 15 35.8333 17.4158 35.8333 20.3958V20.625C35.8333 21.2003 35.367 21.6667 34.7917 21.6667C34.2164 21.6667 33.75 21.2003 33.75 20.625V20.3958C33.75 18.5664 32.2669 17.0833 30.4375 17.0833H20.3958C18.5664 17.0833 17.0833 18.5664 17.0833 20.3958V30.4375C17.0833 32.2669 18.5664 33.75 20.3958 33.75H30.0756C30.4675 31.6166 32.3366 30 34.5833 30C37.1146 30 39.1667 32.052 39.1667 34.5833C39.1667 37.1146 37.1146 39.1667 34.5833 39.1667C32.4854 39.1667 30.7166 37.7571 30.1725 35.8333H20.3958C17.4158 35.8333 15 33.4175 15 30.4375V20.3958C15 17.4158 17.4158 15 20.3958 15ZM32.0833 34.5833C32.0833 35.964 33.2026 37.0833 34.5833 37.0833C35.964 37.0833 37.0833 35.964 37.0833 34.5833C37.0833 33.2026 35.964 32.0833 34.5833 32.0833C33.2026 32.0833 32.0833 33.2026 32.0833 34.5833ZM24.1667 39.7917V39.375C24.1667 38.7997 24.633 38.3333 25.2083 38.3333C25.7836 38.3333 26.25 38.7997 26.25 39.375V39.7917C26.25 41.5176 27.6491 42.9167 29.375 42.9167H39.7917C41.5176 42.9167 42.9167 41.5176 42.9167 39.7917V29.375C42.9167 27.6491 41.5176 26.25 39.7917 26.25H29.9244C29.5325 28.3834 27.6634 30 25.4167 30C22.8854 30 20.8333 27.948 20.8333 25.4167C20.8333 22.8854 22.8854 20.8333 25.4167 20.8333C27.5146 20.8333 29.2834 22.2429 29.8275 24.1667H39.7917C42.6682 24.1667 45 26.4985 45 29.375V39.7917C45 42.6682 42.6682 45 39.7917 45H29.375C26.4985 45 24.1667 42.6682 24.1667 39.7917ZM25.4167 22.9167C24.036 22.9167 22.9167 24.036 22.9167 25.4167C22.9167 26.7974 24.036 27.9167 25.4167 27.9167C26.7974 27.9167 27.9167 26.7974 27.9167 25.4167C27.9167 24.036 26.7974 22.9167 25.4167 22.9167Z" fill="white"/>
<defs>
<linearGradient id="paint0_linear_965_3225" x1="-1.04742e-07" y1="30" x2="60.8447" y2="30.0691" gradientUnits="userSpaceOnUse">
<stop stop-color="#59A5E3"/>
<stop offset="1" stop-color="#8045FF"/>
</linearGradient>
<linearGradient id="paint1_linear_965_3225" x1="-1.04742e-07" y1="30" x2="60.8447" y2="30.0691" gradientUnits="userSpaceOnUse">
<stop stop-color="#59A5E3"/>
<stop offset="1" stop-color="#8045FF"/>
</linearGradient>
</defs>
</svg>
