<svg width="60" height="60" viewBox="0 0 60 60" fill="none" xmlns="http://www.w3.org/2000/svg">
<rect x="1" y="1" width="58" height="58" rx="29" fill="url(#paint0_linear_965_3252)" stroke="url(#paint1_linear_965_3252)" stroke-width="2"/>
<path d="M18.3333 21.6667C20.1743 21.6667 21.6667 20.1743 21.6667 18.3333C21.6667 16.4924 20.1743 15 18.3333 15C16.4924 15 15 16.4924 15 18.3333C15 20.1743 16.4924 21.6667 18.3333 21.6667ZM41.6667 21.6667C43.5076 21.6667 45 20.1743 45 18.3333C45 16.4924 43.5076 15 41.6667 15C39.8257 15 38.3333 16.4924 38.3333 18.3333C38.3333 20.1743 39.8257 21.6667 41.6667 21.6667ZM45 41.6667C45 43.5076 43.5076 45 41.6667 45C39.8257 45 38.3333 43.5076 38.3333 41.6667C38.3333 39.8257 39.8257 38.3333 41.6667 38.3333C43.5076 38.3333 45 39.8257 45 41.6667ZM18.3333 45C20.1743 45 21.6667 43.5076 21.6667 41.6667C21.6667 39.8257 20.1743 38.3333 18.3333 38.3333C16.4924 38.3333 15 39.8257 15 41.6667C15 43.5076 16.4924 45 18.3333 45ZM23.2642 19.1667C23.3097 18.8957 23.3333 18.6173 23.3333 18.3333C23.3333 17.7489 23.2331 17.188 23.0488 16.6667H30.8333C33.1345 16.6667 35 18.5321 35 20.8333V25H39.1667C41.4679 25 43.3333 26.8655 43.3333 29.1667V36.9512C42.812 36.7669 42.2511 36.6667 41.6667 36.6667C41.3827 36.6667 41.1043 36.6903 40.8333 36.7358V29.1667C40.8333 28.2462 40.0871 27.5 39.1667 27.5H35V30.8333C35 33.1345 33.1345 35 30.8333 35H27.5V39.1667C27.5 40.0871 28.2462 40.8333 29.1667 40.8333H36.7358C36.6903 41.1043 36.6667 41.3827 36.6667 41.6667C36.6667 42.2511 36.7669 42.812 36.9512 43.3333H29.1667C26.8655 43.3333 25 41.4679 25 39.1667V35H20.8333C18.5321 35 16.6667 33.1345 16.6667 30.8333V23.0488C17.188 23.2331 17.7489 23.3333 18.3333 23.3333C18.6173 23.3333 18.8957 23.3097 19.1667 23.2642V30.8333C19.1667 31.7538 19.9129 32.5 20.8333 32.5H25V29.1667C25 26.8655 26.8655 25 29.1667 25H32.5V20.8333C32.5 19.9129 31.7538 19.1667 30.8333 19.1667H23.2642ZM30.8333 32.5C31.7538 32.5 32.5 31.7538 32.5 30.8333V27.5H29.1667C28.2462 27.5 27.5 28.2462 27.5 29.1667V32.5H30.8333Z" fill="white"/>
<defs>
<linearGradient id="paint0_linear_965_3252" x1="-1.04742e-07" y1="30" x2="60.8447" y2="30.0691" gradientUnits="userSpaceOnUse">
<stop stop-color="#59A5E3"/>
<stop offset="1" stop-color="#8045FF"/>
</linearGradient>
<linearGradient id="paint1_linear_965_3252" x1="-1.04742e-07" y1="30" x2="60.8447" y2="30.0691" gradientUnits="userSpaceOnUse">
<stop stop-color="#59A5E3"/>
<stop offset="1" stop-color="#8045FF"/>
</linearGradient>
</defs>
</svg>
