<svg width="60" height="60" viewBox="0 0 60 60" fill="none" xmlns="http://www.w3.org/2000/svg">
<rect x="1" y="1" width="58" height="58" rx="29" fill="url(#paint0_linear_965_3245)" stroke="url(#paint1_linear_965_3245)" stroke-width="2"/>
<path d="M26.7904 15.2184C26.9573 15.2752 27.1203 15.3427 27.2785 15.4206L29.1811 16.3573C29.6974 16.6115 30.3026 16.6115 30.8189 16.3573L32.7215 15.4206C34.7426 14.4255 37.1876 15.2573 38.1826 17.2783L38.2916 17.5191L38.3848 17.7664L39.0678 19.7741C39.2531 20.319 39.681 20.7469 40.2259 20.9322L42.2336 21.6152C44.3663 22.3407 45.5071 24.6577 44.7816 26.7904C44.7248 26.9573 44.6573 27.1203 44.5794 27.2785L43.6427 29.1811C43.3885 29.6974 43.3885 30.3026 43.6427 30.8189L44.5794 32.7215C45.5745 34.7426 44.7427 37.1876 42.7217 38.1826C42.5635 38.2605 42.4005 38.328 42.2336 38.3848L40.2259 39.0678C39.681 39.2531 39.2531 39.681 39.0678 40.2259L38.3848 42.2336C37.6593 44.3663 35.3423 45.5071 33.2096 44.7816C33.0427 44.7248 32.8797 44.6573 32.7215 44.5794L30.8189 43.6427C30.3026 43.3885 29.6974 43.3885 29.1811 43.6427L27.2785 44.5794C25.2574 45.5745 22.8124 44.7427 21.8174 42.7217C21.7395 42.5635 21.672 42.4005 21.6152 42.2336L20.9322 40.2259C20.7469 39.681 20.319 39.2531 19.7741 39.0678L17.7664 38.3848C15.6337 37.6593 14.4929 35.3423 15.2184 33.2096C15.2752 33.0427 15.3427 32.8797 15.4206 32.7215L16.3573 30.8189C16.6115 30.3026 16.6115 29.6974 16.3573 29.1811L15.4206 27.2785C14.4255 25.2574 15.2573 22.8124 17.2783 21.8174C17.4365 21.7395 17.5995 21.672 17.7664 21.6152L19.7741 20.9322C20.319 20.7469 20.7469 20.319 20.9322 19.7741L21.6152 17.7664C22.3407 15.6337 24.6577 14.4929 26.7904 15.2184ZM23.7215 18.4829L23.0386 20.4906C22.6308 21.6894 21.6894 22.6308 20.4906 23.0386L18.4829 23.7215C18.407 23.7473 18.3329 23.778 18.261 23.8134C17.3424 24.2657 16.9643 25.3771 17.4166 26.2957L18.3534 28.1983C18.9127 29.3343 18.9127 30.6657 18.3534 31.8017L17.4166 33.7043C17.3812 33.7762 17.3505 33.8503 17.3247 33.9261C16.995 34.8955 17.5135 35.9487 18.4829 36.2785L20.4906 36.9614C21.6894 37.3692 22.6308 38.3106 23.0386 39.5094L23.7215 41.5171C23.7473 41.593 23.778 41.6671 23.8134 41.739C24.2657 42.6576 25.3771 43.0357 26.2957 42.5834L28.1983 41.6466C29.3343 41.0873 30.6657 41.0873 31.8017 41.6466L33.7043 42.5834C33.7762 42.6188 33.8503 42.6495 33.9261 42.6753C34.8955 43.005 35.9487 42.4865 36.2785 41.5171L36.9614 39.5094C37.3692 38.3106 38.3106 37.3692 39.5094 36.9614L41.5171 36.2785C41.593 36.2527 41.6671 36.222 41.739 36.1866C42.6576 35.7343 43.0357 34.6229 42.5834 33.7043L41.6466 31.8017C41.0873 30.6657 41.0873 29.3343 41.6466 28.1983L42.5834 26.2957C42.6188 26.2238 42.6495 26.1497 42.6753 26.0739C43.005 25.1045 42.4865 24.0513 41.5171 23.7215L39.5094 23.0386C38.3106 22.6308 37.3692 21.6894 36.9614 20.4906L36.2785 18.4829L36.2361 18.3705L36.1866 18.261L36.0943 18.0952C35.5961 17.2984 34.5655 16.9926 33.7043 17.4166L31.8017 18.3534C30.6657 18.9127 29.3343 18.9127 28.1983 18.3534L26.2957 17.4166C26.2238 17.3812 26.1497 17.3505 26.0739 17.3247C25.1045 16.995 24.0513 17.5135 23.7215 18.4829ZM27.1083 33.5433L35.1463 25.5053C35.5807 25.0709 36.2851 25.0709 36.7195 25.5053C37.1145 25.9003 37.1504 26.5183 36.8272 26.9538L36.7195 27.0785L27.8201 35.9779C27.3961 36.4019 26.7223 36.4083 26.2904 36.0193L26.179 35.9035L22.4709 31.4538C22.0776 30.9818 22.1413 30.2803 22.6133 29.887C23.0424 29.5295 23.6611 29.5497 24.0656 29.9109L24.1801 30.0295L27.1083 33.5433L35.1463 25.5053L27.1083 33.5433Z" fill="white"/>
<defs>
<linearGradient id="paint0_linear_965_3245" x1="-1.04742e-07" y1="30" x2="60.8447" y2="30.0691" gradientUnits="userSpaceOnUse">
<stop stop-color="#59A5E3"/>
<stop offset="1" stop-color="#8045FF"/>
</linearGradient>
<linearGradient id="paint1_linear_965_3245" x1="-1.04742e-07" y1="30" x2="60.8447" y2="30.0691" gradientUnits="userSpaceOnUse">
<stop stop-color="#59A5E3"/>
<stop offset="1" stop-color="#8045FF"/>
</linearGradient>
</defs>
</svg>
