<svg width="60" height="60" viewBox="0 0 60 60" fill="none" xmlns="http://www.w3.org/2000/svg">
<rect x="1" y="1" width="58" height="58" rx="29" fill="url(#paint0_linear_965_3235)" stroke="url(#paint1_linear_965_3235)" stroke-width="2"/>
<path d="M38.625 15C40.4113 15 41.8735 16.3879 41.9922 18.1442L42 18.3753V41.6247C42 43.4111 40.6122 44.8735 38.856 44.9922L38.625 45H21.375C19.5887 45 18.1265 43.6121 18.0078 41.8558L18 41.6247V18.3753C18 16.5889 19.3878 15.1265 21.144 15.0078L21.375 15H38.625ZM38.625 17.2502H21.375C20.8055 17.2502 20.3348 17.6735 20.2603 18.2227L20.25 18.3753V41.6247C20.25 42.1943 20.6733 42.665 21.2224 42.7395L21.375 42.7498H38.625C39.1945 42.7498 39.6652 42.3265 39.7397 41.7773L39.75 41.6247V18.3753C39.75 17.8057 39.3267 17.335 38.7776 17.2605L38.625 17.2502ZM22.5078 22.132C22.5078 20.6821 23.6831 19.5068 25.1328 19.5068H34.8829C36.3327 19.5068 37.5079 20.6821 37.5079 22.132V24.3822C37.5079 25.8321 36.3327 27.0075 34.8829 27.0075H25.1328C23.6831 27.0075 22.5078 25.8321 22.5078 24.3822V22.132ZM25.1328 21.757C24.9257 21.757 24.7578 21.9249 24.7578 22.132V24.3822C24.7578 24.5894 24.9257 24.7573 25.1328 24.7573H34.8829C35.09 24.7573 35.2579 24.5894 35.2579 24.3822V22.132C35.2579 21.9249 35.09 21.757 34.8829 21.757H25.1328ZM22.5078 35.6333C22.5078 34.1834 23.6831 33.0081 25.1328 33.0081H34.8829C36.3327 33.0081 37.5079 34.1834 37.5079 35.6333V37.8835C37.5079 39.3334 36.3327 40.5088 34.8829 40.5088H25.1328C23.6831 40.5088 22.5078 39.3334 22.5078 37.8835V35.6333ZM25.1328 35.2583C24.9257 35.2583 24.7578 35.4262 24.7578 35.6333V37.8835C24.7578 38.0907 24.9257 38.2586 25.1328 38.2586H34.8829C35.09 38.2586 35.2579 38.0907 35.2579 37.8835V35.6333C35.2579 35.4262 35.09 35.2583 34.8829 35.2583H25.1328Z" fill="white"/>
<defs>
<linearGradient id="paint0_linear_965_3235" x1="-1.04742e-07" y1="30" x2="60.8447" y2="30.0691" gradientUnits="userSpaceOnUse">
<stop stop-color="#59A5E3"/>
<stop offset="1" stop-color="#8045FF"/>
</linearGradient>
<linearGradient id="paint1_linear_965_3235" x1="-1.04742e-07" y1="30" x2="60.8447" y2="30.0691" gradientUnits="userSpaceOnUse">
<stop stop-color="#59A5E3"/>
<stop offset="1" stop-color="#8045FF"/>
</linearGradient>
</defs>
</svg>
