<svg width="60" height="60" viewBox="0 0 60 60" fill="none" xmlns="http://www.w3.org/2000/svg">
<rect x="1" y="1" width="58" height="58" rx="29" fill="url(#paint0_linear_965_3230)" stroke="url(#paint1_linear_965_3230)" stroke-width="2"/>
<path d="M40.3333 16.5C38.9526 16.5 37.8333 17.6193 37.8333 19C37.8333 20.3807 38.9526 21.5 40.3333 21.5C41.714 21.5 42.8333 20.3807 42.8333 19C42.8333 17.6193 41.714 16.5 40.3333 16.5ZM35.3333 19C35.3333 16.2386 37.5719 14 40.3333 14C43.0948 14 45.3333 16.2386 45.3333 19C45.3333 21.7614 43.0948 24 40.3333 24C40.0637 24 39.799 23.9787 39.541 23.9376L36.1441 29.5349C36.6844 30.3335 37 31.2965 37 32.3333C37 35.0948 34.7614 37.3333 32 37.3333C30.4952 37.3333 29.1457 36.6686 28.2291 35.6168L21.9931 38.7343C21.9977 38.8223 22 38.9109 22 39C22 41.7614 19.7614 44 17 44C14.2386 44 12 41.7614 12 39C12 36.2386 14.2386 34 17 34C18.7769 34 20.3374 34.9269 21.2242 36.3236L27.11 33.3812C27.0379 33.0433 27 32.6927 27 32.3333C27 29.5719 29.2386 27.3333 32 27.3333C32.8038 27.3333 33.5633 27.523 34.2362 27.86L37.2325 22.9226C36.0756 22.0068 35.3333 20.5901 35.3333 19ZM32 29.8333C30.6193 29.8333 29.5 30.9526 29.5 32.3333C29.5 33.714 30.6193 34.8333 32 34.8333C33.3807 34.8333 34.5 33.714 34.5 32.3333C34.5 30.9526 33.3807 29.8333 32 29.8333ZM17 36.5C15.6193 36.5 14.5 37.6193 14.5 39C14.5 40.3807 15.6193 41.5 17 41.5C18.3807 41.5 19.5 40.3807 19.5 39C19.5 37.6193 18.3807 36.5 17 36.5Z" fill="white"/>
<defs>
<linearGradient id="paint0_linear_965_3230" x1="-1.04742e-07" y1="30" x2="60.8447" y2="30.0691" gradientUnits="userSpaceOnUse">
<stop stop-color="#59A5E3"/>
<stop offset="1" stop-color="#8045FF"/>
</linearGradient>
<linearGradient id="paint1_linear_965_3230" x1="-1.04742e-07" y1="30" x2="60.8447" y2="30.0691" gradientUnits="userSpaceOnUse">
<stop stop-color="#59A5E3"/>
<stop offset="1" stop-color="#8045FF"/>
</linearGradient>
</defs>
</svg>
