<svg width="60" height="60" viewBox="0 0 60 60" fill="none" xmlns="http://www.w3.org/2000/svg">
<rect x="1" y="1" width="58" height="58" rx="29" fill="url(#paint0_linear_965_3220)" stroke="url(#paint1_linear_965_3220)" stroke-width="2"/>
<path d="M33.0565 38.7359L33.3933 38.7334C34.9149 38.7334 35.7142 39.3641 36.7003 40.8584L37.1913 41.6169C37.5742 42.1837 37.8131 42.4211 38.114 42.5451C38.6536 42.7675 39.1008 42.6581 40.743 41.8674L41.2458 41.6227C42.2729 41.1184 42.9737 40.8298 43.7656 40.6318C44.2667 40.5065 44.7745 40.8112 44.8998 41.3122C45.025 41.8133 44.7204 42.3211 44.2193 42.4464C43.7271 42.5694 43.2554 42.746 42.6384 43.0303L41.1937 43.7253C39.2386 44.6486 38.5756 44.7584 37.4013 44.2744C36.6219 43.9532 36.1786 43.4884 35.5301 42.4968L35.2873 42.1178C34.5868 41.0139 34.2111 40.6518 33.5415 40.6084L33.3933 40.6039C32.7097 40.6039 32.5745 40.6892 29.9758 42.6177C27.8033 44.2299 26.1464 45 24.0395 45C21.4708 45 19.0505 44.5281 16.7857 43.5847L20.3798 42.7538C21.5568 43.0043 22.7763 43.1296 24.0395 43.1296C25.6489 43.1296 26.9829 42.5095 28.8611 41.1157L30.3077 40.0484C31.893 38.8961 32.2456 38.7534 33.0565 38.7359ZM40.9089 16.5651C42.9958 18.6521 42.9958 22.0356 40.909 24.1226L39.6177 25.414C41.0542 27.1616 41.0025 29.0139 39.6669 30.3533L35.9247 34.0955C35.5593 34.4605 34.9672 34.4602 34.6021 34.0948C34.2371 33.7294 34.2374 33.1373 34.6028 32.7722L38.3424 29.0326C38.9472 28.426 39.0171 27.6729 38.2926 26.7401L25.0818 39.9506C24.71 40.3224 24.2411 40.5823 23.7287 40.7005L16.1462 42.4503C15.4728 42.6057 14.8693 42.0022 15.0247 41.3288L16.7745 33.7462C16.8927 33.2339 17.1525 32.7651 17.5243 32.3933L33.3516 16.5652C35.4384 14.4783 38.8219 14.4782 40.9089 16.5651ZM34.6742 17.8878L18.847 33.7158C18.723 33.8398 18.6364 33.996 18.597 34.1668L17.1837 40.2913L23.3081 38.878C23.4789 38.8386 23.6352 38.752 23.7592 38.628L39.5863 22.8C40.9428 21.4435 40.9428 19.2442 39.5863 17.8877C38.2298 16.5313 36.0306 16.5313 34.6742 17.8878Z" fill="white"/>
<defs>
<linearGradient id="paint0_linear_965_3220" x1="-1.04742e-07" y1="30" x2="60.8447" y2="30.0691" gradientUnits="userSpaceOnUse">
<stop stop-color="#59A5E3"/>
<stop offset="1" stop-color="#8045FF"/>
</linearGradient>
<linearGradient id="paint1_linear_965_3220" x1="-1.04742e-07" y1="30" x2="60.8447" y2="30.0691" gradientUnits="userSpaceOnUse">
<stop stop-color="#59A5E3"/>
<stop offset="1" stop-color="#8045FF"/>
</linearGradient>
</defs>
</svg>
