<svg width="336" height="211" viewBox="0 0 336 211" fill="none" xmlns="http://www.w3.org/2000/svg">
<g filter="url(#filter0_d_965_3016)">
<rect x="6" width="324" height="199" rx="10" fill="url(#paint0_linear_965_3016)"/>
</g>
<rect x="92" y="48" width="228" height="119" rx="4" fill="white"/>
<g opacity="0.5">
<path d="M6 10C6 4.47715 10.4772 0 16 0H80V199H16C10.4772 199 6 194.523 6 189V10Z" fill="white"/>
<path d="M80 0H320C325.523 0 330 4.47715 330 10V17H80V0Z" fill="white"/>
</g>
<rect opacity="0.7" x="249" y="55" width="66" height="8" rx="4" fill="url(#paint1_linear_965_3016)"/>
<rect opacity="0.7" x="282" y="154" width="33" height="6" rx="3" fill="url(#paint2_linear_965_3016)"/>
<rect opacity="0.7" x="99" y="55" width="37" height="8" rx="4" fill="url(#paint3_linear_965_3016)"/>
<circle cx="295.5" cy="8.5" r="4" fill="white" stroke="white"/>
<circle cx="282.5" cy="8.5" r="4" fill="white" stroke="white"/>
<path d="M304.5 9H317.5" stroke="white" stroke-width="3" stroke-linecap="round"/>
<path d="M43 28H61" stroke="white" stroke-width="3" stroke-linecap="round"/>
<path d="M43 45H61" stroke="white" stroke-width="3" stroke-linecap="round"/>
<path d="M139 32H181" stroke="white" stroke-width="3" stroke-linecap="round"/>
<path d="M92 32H129" stroke="white" stroke-width="6" stroke-linecap="round"/>
<path opacity="0.4" d="M172 154H192" stroke="url(#paint4_linear_965_3016)" stroke-width="3" stroke-linecap="round"/>
<path opacity="0.4" d="M120 97L153 97" stroke="url(#paint5_linear_965_3016)" stroke-width="3" stroke-linecap="round"/>
<path opacity="0.4" d="M120 85L143 85" stroke="url(#paint6_linear_965_3016)" stroke-width="3" stroke-linecap="round"/>
<path opacity="0.4" d="M105 85L109 85" stroke="url(#paint7_linear_965_3016)" stroke-width="3" stroke-linecap="round"/>
<path opacity="0.4" d="M105 75L106 75" stroke="url(#paint8_linear_965_3016)" stroke-width="3" stroke-linecap="round"/>
<path opacity="0.4" d="M120 75L127 75" stroke="url(#paint9_linear_965_3016)" stroke-width="3" stroke-linecap="round"/>
<path opacity="0.4" d="M166 75L170 75" stroke="url(#paint10_linear_965_3016)" stroke-width="3" stroke-linecap="round"/>
<path opacity="0.4" d="M184 75L190 75" stroke="url(#paint11_linear_965_3016)" stroke-width="3" stroke-linecap="round"/>
<path opacity="0.4" d="M204 75L208 75" stroke="url(#paint12_linear_965_3016)" stroke-width="3" stroke-linecap="round"/>
<path opacity="0.4" d="M232 75L240 75" stroke="url(#paint13_linear_965_3016)" stroke-width="3" stroke-linecap="round"/>
<path opacity="0.4" d="M268 75L279 75" stroke="url(#paint14_linear_965_3016)" stroke-width="3" stroke-linecap="round"/>
<path opacity="0.4" d="M305 85L309 85" stroke="url(#paint15_linear_965_3016)" stroke-width="3" stroke-linecap="round"/>
<path opacity="0.4" d="M166 85L176 85" stroke="url(#paint16_linear_965_3016)" stroke-width="3" stroke-linecap="round"/>
<path opacity="0.4" d="M185 85L195 85" stroke="url(#paint17_linear_965_3016)" stroke-width="3" stroke-linecap="round"/>
<path opacity="0.4" d="M205 85L226 85" stroke="url(#paint18_linear_965_3016)" stroke-width="3" stroke-linecap="round"/>
<path opacity="0.4" d="M233 85L260 85" stroke="url(#paint19_linear_965_3016)" stroke-width="3" stroke-linecap="round"/>
<path opacity="0.4" d="M269 85L296 85" stroke="url(#paint20_linear_965_3016)" stroke-width="3" stroke-linecap="round"/>
<path opacity="0.4" d="M233 99L260 99" stroke="url(#paint21_linear_965_3016)" stroke-width="3" stroke-linecap="round"/>
<path opacity="0.4" d="M269 99L296 99" stroke="url(#paint22_linear_965_3016)" stroke-width="3" stroke-linecap="round"/>
<path opacity="0.4" d="M233 113L260 113" stroke="url(#paint23_linear_965_3016)" stroke-width="3" stroke-linecap="round"/>
<path opacity="0.4" d="M269 113L296 113" stroke="url(#paint24_linear_965_3016)" stroke-width="3" stroke-linecap="round"/>
<path opacity="0.4" d="M233 127L260 127" stroke="url(#paint25_linear_965_3016)" stroke-width="3" stroke-linecap="round"/>
<path opacity="0.4" d="M269 127L296 127" stroke="url(#paint26_linear_965_3016)" stroke-width="3" stroke-linecap="round"/>
<path opacity="0.4" d="M233 141L260 141" stroke="url(#paint27_linear_965_3016)" stroke-width="3" stroke-linecap="round"/>
<path opacity="0.4" d="M269 141L296 141" stroke="url(#paint28_linear_965_3016)" stroke-width="3" stroke-linecap="round"/>
<path opacity="0.4" d="M105 99L109 99" stroke="url(#paint29_linear_965_3016)" stroke-width="3" stroke-linecap="round"/>
<path opacity="0.4" d="M305 99L309 99" stroke="url(#paint30_linear_965_3016)" stroke-width="3" stroke-linecap="round"/>
<path opacity="0.4" d="M166 99L176 99" stroke="url(#paint31_linear_965_3016)" stroke-width="3" stroke-linecap="round"/>
<path opacity="0.4" d="M185 99L195 99" stroke="url(#paint32_linear_965_3016)" stroke-width="3" stroke-linecap="round"/>
<path opacity="0.4" d="M205 99L211 99" stroke="url(#paint33_linear_965_3016)" stroke-width="3" stroke-linecap="round"/>
<path opacity="0.4" d="M105 113L109 113" stroke="url(#paint34_linear_965_3016)" stroke-width="3" stroke-linecap="round"/>
<path opacity="0.4" d="M305 113L309 113" stroke="url(#paint35_linear_965_3016)" stroke-width="3" stroke-linecap="round"/>
<path opacity="0.4" d="M166 113L176 113" stroke="url(#paint36_linear_965_3016)" stroke-width="3" stroke-linecap="round"/>
<path opacity="0.4" d="M185 113L195 113" stroke="url(#paint37_linear_965_3016)" stroke-width="3" stroke-linecap="round"/>
<path opacity="0.4" d="M205 113L211 113" stroke="url(#paint38_linear_965_3016)" stroke-width="3" stroke-linecap="round"/>
<path opacity="0.4" d="M105 127L109 127" stroke="url(#paint39_linear_965_3016)" stroke-width="3" stroke-linecap="round"/>
<path opacity="0.4" d="M305 127L309 127" stroke="url(#paint40_linear_965_3016)" stroke-width="3" stroke-linecap="round"/>
<path opacity="0.4" d="M166 127L176 127" stroke="url(#paint41_linear_965_3016)" stroke-width="3" stroke-linecap="round"/>
<path opacity="0.4" d="M185 127L195 127" stroke="url(#paint42_linear_965_3016)" stroke-width="3" stroke-linecap="round"/>
<path opacity="0.4" d="M205 127L211 127" stroke="url(#paint43_linear_965_3016)" stroke-width="3" stroke-linecap="round"/>
<path opacity="0.4" d="M105 141L109 141" stroke="url(#paint44_linear_965_3016)" stroke-width="3" stroke-linecap="round"/>
<path opacity="0.4" d="M305 141L309 141" stroke="url(#paint45_linear_965_3016)" stroke-width="3" stroke-linecap="round"/>
<path opacity="0.4" d="M166 141L176 141" stroke="url(#paint46_linear_965_3016)" stroke-width="3" stroke-linecap="round"/>
<path opacity="0.4" d="M185 141L195 141" stroke="url(#paint47_linear_965_3016)" stroke-width="3" stroke-linecap="round"/>
<path opacity="0.4" d="M205 141L211 141" stroke="url(#paint48_linear_965_3016)" stroke-width="3" stroke-linecap="round"/>
<path opacity="0.4" d="M120 115L132 115" stroke="url(#paint49_linear_965_3016)" stroke-width="3" stroke-linecap="round"/>
<path opacity="0.4" d="M120 111L157 111" stroke="url(#paint50_linear_965_3016)" stroke-width="3" stroke-linecap="round"/>
<path opacity="0.4" d="M120 129L157 129" stroke="url(#paint51_linear_965_3016)" stroke-width="3" stroke-linecap="round"/>
<path opacity="0.4" d="M120 139L157 139" stroke="url(#paint52_linear_965_3016)" stroke-width="3" stroke-linecap="round"/>
<path opacity="0.4" d="M120 125L145 125" stroke="url(#paint53_linear_965_3016)" stroke-width="3" stroke-linecap="round"/>
<path opacity="0.4" d="M120 143L131 143" stroke="url(#paint54_linear_965_3016)" stroke-width="3" stroke-linecap="round"/>
<path opacity="0.4" d="M120 101L153 101" stroke="url(#paint55_linear_965_3016)" stroke-width="3" stroke-linecap="round"/>
<circle cx="37" cy="27" r="1.5" fill="white" stroke="white"/>
<circle cx="37" cy="45" r="1.5" fill="white" stroke="white"/>
<circle cx="305" cy="33" r="1.5" fill="white" stroke="white"/>
<path d="M10.5 35H24.5" stroke="white" stroke-width="3" stroke-linecap="round"/>
<rect x="13" y="22.5" width="8" height="8" rx="0.5" fill="white" stroke="white"/>
<path d="M10.5 81H24.5" stroke="white" stroke-width="3" stroke-linecap="round"/>
<rect x="13" y="68.5" width="8" height="8" rx="0.5" fill="white" stroke="white"/>
<path d="M10.5 104H24.5" stroke="white" stroke-width="3" stroke-linecap="round"/>
<rect x="13" y="91.5" width="8" height="8" rx="0.5" fill="white" stroke="white"/>
<path d="M10.5 127H24.5" stroke="white" stroke-width="3" stroke-linecap="round"/>
<rect x="13" y="114.5" width="8" height="8" rx="0.5" fill="white" stroke="white"/>
<path d="M10.5 150H24.5" stroke="white" stroke-width="3" stroke-linecap="round"/>
<rect x="13" y="137.5" width="8" height="8" rx="0.5" fill="white" stroke="white"/>
<path d="M10.5 173H24.5" stroke="white" stroke-width="2" stroke-linecap="round"/>
<rect x="13" y="160.5" width="8" height="8" rx="0.5" fill="white" stroke="white"/>
<path d="M330 17H6" stroke="white" stroke-linecap="round"/>
<path d="M320 42L91 42" stroke="white" stroke-linecap="round"/>
<path opacity="0.3" d="M320 182L91 182" stroke="white" stroke-linecap="round"/>
<path d="M30 199L30 18" stroke="white" stroke-linecap="round"/>
<path d="M6.5 155H29.5" stroke="white" stroke-linecap="round"/>
<path d="M6.5 132H29.5" stroke="white" stroke-linecap="round"/>
<path d="M6.5 109H29.5" stroke="white" stroke-linecap="round"/>
<path d="M6.5 86H29.5" stroke="white" stroke-linecap="round"/>
<path d="M6.5 63H29.5" stroke="white" stroke-linecap="round"/>
<path d="M6.5 40H29.5" stroke="white" stroke-linecap="round"/>
<path d="M311 33H318" stroke="white" stroke-width="3" stroke-linecap="round"/>
<circle cx="160.5" cy="8.5" r="4" fill="white" stroke="white"/>
<rect x="167.5" y="7.5" width="13" height="3" rx="1.5" fill="white" stroke="white"/>
<path d="M10.5 58H24.5" stroke="white" stroke-width="3" stroke-linecap="round"/>
<rect x="13" y="45.5" width="8" height="8" rx="0.5" fill="white" stroke="white"/>
<defs>
<filter id="filter0_d_965_3016" x="0" y="0" width="336" height="211" filterUnits="userSpaceOnUse" color-interpolation-filters="sRGB">
<feFlood flood-opacity="0" result="BackgroundImageFix"/>
<feColorMatrix in="SourceAlpha" type="matrix" values="0 0 0 0 0 0 0 0 0 0 0 0 0 0 0 0 0 0 127 0" result="hardAlpha"/>
<feOffset dy="6"/>
<feGaussianBlur stdDeviation="3"/>
<feComposite in2="hardAlpha" operator="out"/>
<feColorMatrix type="matrix" values="0 0 0 0 0 0 0 0 0 0 0 0 0 0 0 0 0 0 0.1 0"/>
<feBlend mode="normal" in2="BackgroundImageFix" result="effect1_dropShadow_965_3016"/>
<feBlend mode="normal" in="SourceGraphic" in2="effect1_dropShadow_965_3016" result="shape"/>
</filter>
<linearGradient id="paint0_linear_965_3016" x1="330" y1="-9.59842e-05" x2="6" y2="-8.76255e-05" gradientUnits="userSpaceOnUse">
<stop stop-color="#E7DAF6"/>
<stop offset="1" stop-color="#F5ACA3"/>
</linearGradient>
<linearGradient id="paint1_linear_965_3016" x1="315" y1="55" x2="249" y2="55" gradientUnits="userSpaceOnUse">
<stop stop-color="#E7DAF6"/>
<stop offset="1" stop-color="#F5ACA3"/>
</linearGradient>
<linearGradient id="paint2_linear_965_3016" x1="315" y1="154" x2="282" y2="154" gradientUnits="userSpaceOnUse">
<stop stop-color="#E7DAF6"/>
<stop offset="1" stop-color="#F5ACA3"/>
</linearGradient>
<linearGradient id="paint3_linear_965_3016" x1="136" y1="55" x2="99" y2="55" gradientUnits="userSpaceOnUse">
<stop stop-color="#E7DAF6"/>
<stop offset="1" stop-color="#F5ACA3"/>
</linearGradient>
<linearGradient id="paint4_linear_965_3016" x1="172" y1="154.5" x2="192.271" y2="154.961" gradientUnits="userSpaceOnUse">
<stop stop-color="#59A5E3"/>
<stop offset="1" stop-color="#8045FF"/>
</linearGradient>
<linearGradient id="paint5_linear_965_3016" x1="120" y1="97.5" x2="153.418" y2="98.7529" gradientUnits="userSpaceOnUse">
<stop stop-color="#59A5E3"/>
<stop offset="1" stop-color="#8045FF"/>
</linearGradient>
<linearGradient id="paint6_linear_965_3016" x1="120" y1="85.5" x2="143.308" y2="86.109" gradientUnits="userSpaceOnUse">
<stop stop-color="#59A5E3"/>
<stop offset="1" stop-color="#8045FF"/>
</linearGradient>
<linearGradient id="paint7_linear_965_3016" x1="105" y1="85.5" x2="109.056" y2="85.5184" gradientUnits="userSpaceOnUse">
<stop stop-color="#59A5E3"/>
<stop offset="1" stop-color="#8045FF"/>
</linearGradient>
<linearGradient id="paint8_linear_965_3016" x1="105" y1="75.5" x2="106.014" y2="75.5012" gradientUnits="userSpaceOnUse">
<stop stop-color="#59A5E3"/>
<stop offset="1" stop-color="#8045FF"/>
</linearGradient>
<linearGradient id="paint9_linear_965_3016" x1="120" y1="75.5" x2="127.098" y2="75.5564" gradientUnits="userSpaceOnUse">
<stop stop-color="#59A5E3"/>
<stop offset="1" stop-color="#8045FF"/>
</linearGradient>
<linearGradient id="paint10_linear_965_3016" x1="166" y1="75.5" x2="170.056" y2="75.5184" gradientUnits="userSpaceOnUse">
<stop stop-color="#59A5E3"/>
<stop offset="1" stop-color="#8045FF"/>
</linearGradient>
<linearGradient id="paint11_linear_965_3016" x1="184" y1="75.5" x2="190.084" y2="75.5415" gradientUnits="userSpaceOnUse">
<stop stop-color="#59A5E3"/>
<stop offset="1" stop-color="#8045FF"/>
</linearGradient>
<linearGradient id="paint12_linear_965_3016" x1="204" y1="75.5" x2="208.056" y2="75.5184" gradientUnits="userSpaceOnUse">
<stop stop-color="#59A5E3"/>
<stop offset="1" stop-color="#8045FF"/>
</linearGradient>
<linearGradient id="paint13_linear_965_3016" x1="232" y1="75.5" x2="240.112" y2="75.5737" gradientUnits="userSpaceOnUse">
<stop stop-color="#59A5E3"/>
<stop offset="1" stop-color="#8045FF"/>
</linearGradient>
<linearGradient id="paint14_linear_965_3016" x1="268" y1="75.5" x2="279.153" y2="75.6394" gradientUnits="userSpaceOnUse">
<stop stop-color="#59A5E3"/>
<stop offset="1" stop-color="#8045FF"/>
</linearGradient>
<linearGradient id="paint15_linear_965_3016" x1="305" y1="85.5" x2="309.056" y2="85.5184" gradientUnits="userSpaceOnUse">
<stop stop-color="#59A5E3"/>
<stop offset="1" stop-color="#8045FF"/>
</linearGradient>
<linearGradient id="paint16_linear_965_3016" x1="166" y1="85.5" x2="176.139" y2="85.6152" gradientUnits="userSpaceOnUse">
<stop stop-color="#59A5E3"/>
<stop offset="1" stop-color="#8045FF"/>
</linearGradient>
<linearGradient id="paint17_linear_965_3016" x1="185" y1="85.5" x2="195.139" y2="85.6152" gradientUnits="userSpaceOnUse">
<stop stop-color="#59A5E3"/>
<stop offset="1" stop-color="#8045FF"/>
</linearGradient>
<linearGradient id="paint18_linear_965_3016" x1="205" y1="85.5" x2="226.284" y2="86.0078" gradientUnits="userSpaceOnUse">
<stop stop-color="#59A5E3"/>
<stop offset="1" stop-color="#8045FF"/>
</linearGradient>
<linearGradient id="paint19_linear_965_3016" x1="233" y1="85.5" x2="260.354" y2="86.3391" gradientUnits="userSpaceOnUse">
<stop stop-color="#59A5E3"/>
<stop offset="1" stop-color="#8045FF"/>
</linearGradient>
<linearGradient id="paint20_linear_965_3016" x1="269" y1="85.5" x2="296.354" y2="86.3391" gradientUnits="userSpaceOnUse">
<stop stop-color="#59A5E3"/>
<stop offset="1" stop-color="#8045FF"/>
</linearGradient>
<linearGradient id="paint21_linear_965_3016" x1="233" y1="99.5" x2="260.354" y2="100.339" gradientUnits="userSpaceOnUse">
<stop stop-color="#59A5E3"/>
<stop offset="1" stop-color="#8045FF"/>
</linearGradient>
<linearGradient id="paint22_linear_965_3016" x1="269" y1="99.5" x2="296.354" y2="100.339" gradientUnits="userSpaceOnUse">
<stop stop-color="#59A5E3"/>
<stop offset="1" stop-color="#8045FF"/>
</linearGradient>
<linearGradient id="paint23_linear_965_3016" x1="233" y1="113.5" x2="260.354" y2="114.339" gradientUnits="userSpaceOnUse">
<stop stop-color="#59A5E3"/>
<stop offset="1" stop-color="#8045FF"/>
</linearGradient>
<linearGradient id="paint24_linear_965_3016" x1="269" y1="113.5" x2="296.354" y2="114.339" gradientUnits="userSpaceOnUse">
<stop stop-color="#59A5E3"/>
<stop offset="1" stop-color="#8045FF"/>
</linearGradient>
<linearGradient id="paint25_linear_965_3016" x1="233" y1="127.5" x2="260.354" y2="128.339" gradientUnits="userSpaceOnUse">
<stop stop-color="#59A5E3"/>
<stop offset="1" stop-color="#8045FF"/>
</linearGradient>
<linearGradient id="paint26_linear_965_3016" x1="269" y1="127.5" x2="296.354" y2="128.339" gradientUnits="userSpaceOnUse">
<stop stop-color="#59A5E3"/>
<stop offset="1" stop-color="#8045FF"/>
</linearGradient>
<linearGradient id="paint27_linear_965_3016" x1="233" y1="141.5" x2="260.354" y2="142.339" gradientUnits="userSpaceOnUse">
<stop stop-color="#59A5E3"/>
<stop offset="1" stop-color="#8045FF"/>
</linearGradient>
<linearGradient id="paint28_linear_965_3016" x1="269" y1="141.5" x2="296.354" y2="142.339" gradientUnits="userSpaceOnUse">
<stop stop-color="#59A5E3"/>
<stop offset="1" stop-color="#8045FF"/>
</linearGradient>
<linearGradient id="paint29_linear_965_3016" x1="105" y1="99.5" x2="109.056" y2="99.5184" gradientUnits="userSpaceOnUse">
<stop stop-color="#59A5E3"/>
<stop offset="1" stop-color="#8045FF"/>
</linearGradient>
<linearGradient id="paint30_linear_965_3016" x1="305" y1="99.5" x2="309.056" y2="99.5184" gradientUnits="userSpaceOnUse">
<stop stop-color="#59A5E3"/>
<stop offset="1" stop-color="#8045FF"/>
</linearGradient>
<linearGradient id="paint31_linear_965_3016" x1="166" y1="99.5" x2="176.139" y2="99.6152" gradientUnits="userSpaceOnUse">
<stop stop-color="#59A5E3"/>
<stop offset="1" stop-color="#8045FF"/>
</linearGradient>
<linearGradient id="paint32_linear_965_3016" x1="185" y1="99.5" x2="195.139" y2="99.6152" gradientUnits="userSpaceOnUse">
<stop stop-color="#59A5E3"/>
<stop offset="1" stop-color="#8045FF"/>
</linearGradient>
<linearGradient id="paint33_linear_965_3016" x1="205" y1="99.5" x2="211.084" y2="99.5415" gradientUnits="userSpaceOnUse">
<stop stop-color="#59A5E3"/>
<stop offset="1" stop-color="#8045FF"/>
</linearGradient>
<linearGradient id="paint34_linear_965_3016" x1="105" y1="113.5" x2="109.056" y2="113.518" gradientUnits="userSpaceOnUse">
<stop stop-color="#59A5E3"/>
<stop offset="1" stop-color="#8045FF"/>
</linearGradient>
<linearGradient id="paint35_linear_965_3016" x1="305" y1="113.5" x2="309.056" y2="113.518" gradientUnits="userSpaceOnUse">
<stop stop-color="#59A5E3"/>
<stop offset="1" stop-color="#8045FF"/>
</linearGradient>
<linearGradient id="paint36_linear_965_3016" x1="166" y1="113.5" x2="176.139" y2="113.615" gradientUnits="userSpaceOnUse">
<stop stop-color="#59A5E3"/>
<stop offset="1" stop-color="#8045FF"/>
</linearGradient>
<linearGradient id="paint37_linear_965_3016" x1="185" y1="113.5" x2="195.139" y2="113.615" gradientUnits="userSpaceOnUse">
<stop stop-color="#59A5E3"/>
<stop offset="1" stop-color="#8045FF"/>
</linearGradient>
<linearGradient id="paint38_linear_965_3016" x1="205" y1="113.5" x2="211.084" y2="113.541" gradientUnits="userSpaceOnUse">
<stop stop-color="#59A5E3"/>
<stop offset="1" stop-color="#8045FF"/>
</linearGradient>
<linearGradient id="paint39_linear_965_3016" x1="105" y1="127.5" x2="109.056" y2="127.518" gradientUnits="userSpaceOnUse">
<stop stop-color="#59A5E3"/>
<stop offset="1" stop-color="#8045FF"/>
</linearGradient>
<linearGradient id="paint40_linear_965_3016" x1="305" y1="127.5" x2="309.056" y2="127.518" gradientUnits="userSpaceOnUse">
<stop stop-color="#59A5E3"/>
<stop offset="1" stop-color="#8045FF"/>
</linearGradient>
<linearGradient id="paint41_linear_965_3016" x1="166" y1="127.5" x2="176.139" y2="127.615" gradientUnits="userSpaceOnUse">
<stop stop-color="#59A5E3"/>
<stop offset="1" stop-color="#8045FF"/>
</linearGradient>
<linearGradient id="paint42_linear_965_3016" x1="185" y1="127.5" x2="195.139" y2="127.615" gradientUnits="userSpaceOnUse">
<stop stop-color="#59A5E3"/>
<stop offset="1" stop-color="#8045FF"/>
</linearGradient>
<linearGradient id="paint43_linear_965_3016" x1="205" y1="127.5" x2="211.084" y2="127.541" gradientUnits="userSpaceOnUse">
<stop stop-color="#59A5E3"/>
<stop offset="1" stop-color="#8045FF"/>
</linearGradient>
<linearGradient id="paint44_linear_965_3016" x1="105" y1="141.5" x2="109.056" y2="141.518" gradientUnits="userSpaceOnUse">
<stop stop-color="#59A5E3"/>
<stop offset="1" stop-color="#8045FF"/>
</linearGradient>
<linearGradient id="paint45_linear_965_3016" x1="305" y1="141.5" x2="309.056" y2="141.518" gradientUnits="userSpaceOnUse">
<stop stop-color="#59A5E3"/>
<stop offset="1" stop-color="#8045FF"/>
</linearGradient>
<linearGradient id="paint46_linear_965_3016" x1="166" y1="141.5" x2="176.139" y2="141.615" gradientUnits="userSpaceOnUse">
<stop stop-color="#59A5E3"/>
<stop offset="1" stop-color="#8045FF"/>
</linearGradient>
<linearGradient id="paint47_linear_965_3016" x1="185" y1="141.5" x2="195.139" y2="141.615" gradientUnits="userSpaceOnUse">
<stop stop-color="#59A5E3"/>
<stop offset="1" stop-color="#8045FF"/>
</linearGradient>
<linearGradient id="paint48_linear_965_3016" x1="205" y1="141.5" x2="211.084" y2="141.541" gradientUnits="userSpaceOnUse">
<stop stop-color="#59A5E3"/>
<stop offset="1" stop-color="#8045FF"/>
</linearGradient>
<linearGradient id="paint49_linear_965_3016" x1="120" y1="115.5" x2="132.167" y2="115.666" gradientUnits="userSpaceOnUse">
<stop stop-color="#59A5E3"/>
<stop offset="1" stop-color="#8045FF"/>
</linearGradient>
<linearGradient id="paint50_linear_965_3016" x1="120" y1="111.5" x2="157.455" y2="113.074" gradientUnits="userSpaceOnUse">
<stop stop-color="#59A5E3"/>
<stop offset="1" stop-color="#8045FF"/>
</linearGradient>
<linearGradient id="paint51_linear_965_3016" x1="120" y1="129.5" x2="157.455" y2="131.074" gradientUnits="userSpaceOnUse">
<stop stop-color="#59A5E3"/>
<stop offset="1" stop-color="#8045FF"/>
</linearGradient>
<linearGradient id="paint52_linear_965_3016" x1="120" y1="139.5" x2="157.455" y2="141.074" gradientUnits="userSpaceOnUse">
<stop stop-color="#59A5E3"/>
<stop offset="1" stop-color="#8045FF"/>
</linearGradient>
<linearGradient id="paint53_linear_965_3016" x1="120" y1="125.5" x2="145.332" y2="126.219" gradientUnits="userSpaceOnUse">
<stop stop-color="#59A5E3"/>
<stop offset="1" stop-color="#8045FF"/>
</linearGradient>
<linearGradient id="paint54_linear_965_3016" x1="120" y1="143.5" x2="131.153" y2="143.639" gradientUnits="userSpaceOnUse">
<stop stop-color="#59A5E3"/>
<stop offset="1" stop-color="#8045FF"/>
</linearGradient>
<linearGradient id="paint55_linear_965_3016" x1="120" y1="101.5" x2="153.418" y2="102.753" gradientUnits="userSpaceOnUse">
<stop stop-color="#59A5E3"/>
<stop offset="1" stop-color="#8045FF"/>
</linearGradient>
</defs>
</svg>
