<svg width="60" height="60" viewBox="0 0 60 60" fill="none" xmlns="http://www.w3.org/2000/svg">
<rect x="1" y="1" width="58" height="58" rx="29" fill="url(#paint0_linear_965_3207)" stroke="url(#paint1_linear_965_3207)" stroke-width="2"/>
<path d="M29.9928 15C36.3066 15 41.4619 19.9137 41.6788 26.1494L41.6853 26.5353V32.8367L43.8368 37.6908C43.9444 37.9337 44 38.1959 44 38.461C44 39.5228 43.1275 40.3836 42.0512 40.3836L34.6698 40.3859C34.6698 42.9342 32.5758 45 29.9928 45C27.502 45 25.466 43.0791 25.3237 40.657L25.3151 40.3824L17.9493 40.3836C17.6821 40.3836 17.4179 40.3294 17.1729 40.2244C16.1857 39.8014 15.733 38.669 16.1618 37.6951L18.3002 32.8381V26.5352C18.3012 20.1449 23.5262 15 29.9928 15ZM32.3306 40.3824L27.6543 40.3859C27.6543 41.66 28.7013 42.6929 29.9928 42.6929C31.2083 42.6929 32.2073 41.778 32.3206 40.6081L32.3306 40.3824ZM29.9928 17.3071C24.8166 17.3071 20.6395 21.4202 20.6388 26.5353V33.3176L18.5435 38.0765H41.4554L39.3468 33.319L39.347 26.5551L39.3412 26.2087C39.168 21.2355 35.0464 17.3071 29.9928 17.3071Z" fill="white"/>
<defs>
<linearGradient id="paint0_linear_965_3207" x1="-1.04742e-07" y1="30" x2="60.8447" y2="30.0691" gradientUnits="userSpaceOnUse">
<stop stop-color="#59A5E3"/>
<stop offset="1" stop-color="#8045FF"/>
</linearGradient>
<linearGradient id="paint1_linear_965_3207" x1="-1.04742e-07" y1="30" x2="60.8447" y2="30.0691" gradientUnits="userSpaceOnUse">
<stop stop-color="#59A5E3"/>
<stop offset="1" stop-color="#8045FF"/>
</linearGradient>
</defs>
</svg>
