<svg width="60" height="60" viewBox="0 0 60 60" fill="none" xmlns="http://www.w3.org/2000/svg">
<rect x="1" y="1" width="58" height="58" rx="29" fill="url(#paint0_linear_965_3240)" stroke="url(#paint1_linear_965_3240)" stroke-width="2"/>
<path d="M38.625 15C40.4113 15 41.8735 16.3879 41.9922 18.1442L42 18.3753V41.6247C42 43.4111 40.6122 44.8735 38.856 44.9922L38.625 45H21.375C19.5887 45 18.1265 43.6121 18.0078 41.8558L18 41.6247V18.3753C18 16.5889 19.3878 15.1265 21.144 15.0078L21.375 15H38.625ZM38.625 17.2502H21.375C20.8055 17.2502 20.3348 17.6735 20.2603 18.2227L20.25 18.3753V41.6247C20.25 42.1943 20.6733 42.665 21.2224 42.7395L21.375 42.7498H38.625C39.1945 42.7498 39.6652 42.3265 39.7397 41.7773L39.75 41.6247V18.3753C39.75 17.8057 39.3267 17.335 38.7776 17.2605L38.625 17.2502ZM22.4999 35.6255C22.4999 35.0042 23.0036 34.5004 23.6249 34.5004H36.375C36.9964 34.5004 37.5001 35.0042 37.5001 35.6255C37.5001 36.2469 36.9964 36.7507 36.375 36.7507H23.6249C23.0036 36.7507 22.4999 36.2469 22.4999 35.6255ZM22.4999 23.6244C22.4999 23.003 23.0036 22.4993 23.6249 22.4993H36.375C36.9964 22.4993 37.5001 23.003 37.5001 23.6244C37.5001 24.2458 36.9964 24.7495 36.375 24.7495H23.6249C23.0036 24.7495 22.4999 24.2458 22.4999 23.6244ZM22.4999 29.625C22.4999 29.0036 23.0036 28.4999 23.6249 28.4999H36.375C36.9964 28.4999 37.5001 29.0036 37.5001 29.625C37.5001 30.2463 36.9964 30.7501 36.375 30.7501H23.6249C23.0036 30.7501 22.4999 30.2463 22.4999 29.625Z" fill="white"/>
<defs>
<linearGradient id="paint0_linear_965_3240" x1="-1.04742e-07" y1="30" x2="60.8447" y2="30.0691" gradientUnits="userSpaceOnUse">
<stop stop-color="#59A5E3"/>
<stop offset="1" stop-color="#8045FF"/>
</linearGradient>
<linearGradient id="paint1_linear_965_3240" x1="-1.04742e-07" y1="30" x2="60.8447" y2="30.0691" gradientUnits="userSpaceOnUse">
<stop stop-color="#59A5E3"/>
<stop offset="1" stop-color="#8045FF"/>
</linearGradient>
</defs>
</svg>
