<svg width="60" height="60" viewBox="0 0 60 60" fill="none" xmlns="http://www.w3.org/2000/svg">
<rect x="1" y="1" width="58" height="58" rx="29" fill="url(#paint0_linear_965_3210)" stroke="url(#paint1_linear_965_3210)" stroke-width="2"/>
<path d="M13 20.9583C13 18.7722 14.7722 17 16.9583 17H42.3749C44.561 17 46.3332 18.7722 46.3332 20.9583V36.3749C46.3332 38.3769 44.8471 40.0317 42.9178 40.2963C42.8013 39.8335 42.5619 39.3985 42.2067 39.0433L41.4133 38.2499H42.3749C43.4105 38.2499 44.2499 37.4105 44.2499 36.3749V20.9583C44.2499 19.9228 43.4105 19.0833 42.3749 19.0833H16.9583C15.9228 19.0833 15.0833 19.9228 15.0833 20.9583V36.3749C15.0833 37.4105 15.9228 38.2499 16.9583 38.2499H24.6666V40.3333H16.9583C14.7722 40.3333 13 38.5611 13 36.3749V20.9583ZM28.1115 27.3051C27.8136 27.0072 27.3656 26.918 26.9763 27.0793C26.5871 27.2405 26.3333 27.6203 26.3333 28.0416V45.9583C26.3333 46.416 26.6321 46.8201 27.0697 46.9542C27.5074 47.0883 27.9813 46.921 28.2378 46.5419L32.3718 40.4307C32.5197 40.212 32.789 40.1099 33.0447 40.1755L40.0329 41.9673C40.4875 42.0839 40.964 41.882 41.1965 41.4742C41.429 41.0665 41.3601 40.5536 41.0282 40.2217L28.1115 27.3051ZM28.4166 42.5593V30.5564L36.8643 39.0041L33.5622 38.1574C32.4542 37.8733 31.2871 38.3159 30.6462 39.2634L28.4166 42.5593Z" fill="white"/>
<defs>
<linearGradient id="paint0_linear_965_3210" x1="-1.04742e-07" y1="30" x2="60.8447" y2="30.0691" gradientUnits="userSpaceOnUse">
<stop stop-color="#59A5E3"/>
<stop offset="1" stop-color="#8045FF"/>
</linearGradient>
<linearGradient id="paint1_linear_965_3210" x1="-1.04742e-07" y1="30" x2="60.8447" y2="30.0691" gradientUnits="userSpaceOnUse">
<stop stop-color="#59A5E3"/>
<stop offset="1" stop-color="#8045FF"/>
</linearGradient>
</defs>
</svg>
