<svg width="60" height="60" viewBox="0 0 60 60" fill="none" xmlns="http://www.w3.org/2000/svg">
<rect x="1" y="1" width="58" height="58" rx="29" fill="url(#paint0_linear_965_3215)" stroke="url(#paint1_linear_965_3215)" stroke-width="2"/>
<path d="M16.2052 20.8998C16.2052 18.746 17.9512 17 20.1051 17H41.1002C43.254 17 45 18.746 45 20.8998V37.0993C45 39.2531 43.254 40.9991 41.1002 40.9991H31.1693L29.3693 39.1992H41.1002C42.2599 39.1992 43.2001 38.259 43.2001 37.0993V20.8998C43.2001 19.7401 42.2599 18.7999 41.1002 18.7999H20.1051C18.9453 18.7999 18.0052 19.7401 18.0052 20.8998V27.4755C17.3441 27.8194 16.7385 28.2552 16.2052 28.766V20.8998ZM27.7481 29.5995C27.1944 28.8913 26.521 28.2811 25.7584 27.7996H38.0991C38.5961 27.7996 38.999 28.2025 38.999 28.6995C38.999 29.1966 38.5961 29.5995 38.0991 29.5995H27.7481ZM29.3994 34.3993H35.6992C36.1962 34.3993 36.5991 33.9964 36.5991 33.4993C36.5991 33.0023 36.1962 32.5994 35.6992 32.5994H29.1907C29.3272 33.1772 29.3994 33.7798 29.3994 34.3993ZM22.1997 23.8997C22.1997 23.4027 22.6026 22.9998 23.0997 22.9998H32.0993C32.5963 22.9998 32.9993 23.4027 32.9993 23.8997C32.9993 24.3968 32.5963 24.7997 32.0993 24.7997H23.0997C22.6026 24.7997 22.1997 24.3968 22.1997 23.8997ZM26.8595 38.3863C27.7004 37.2787 28.1995 35.8973 28.1995 34.3993C28.1995 30.7544 25.2447 27.7996 21.5997 27.7996C17.9548 27.7996 15 30.7544 15 34.3993C15 38.0442 17.9548 40.999 21.5997 40.999C23.0977 40.999 24.4791 40.5 25.5867 39.6591L29.063 43.1353C29.4145 43.4868 29.9843 43.4868 30.3358 43.1353C30.6872 42.7839 30.6872 42.2141 30.3358 41.8626L26.8595 38.3863ZM26.3995 34.3993C26.3995 37.0502 24.2506 39.1991 21.5997 39.1991C18.9489 39.1991 16.7999 37.0502 16.7999 34.3993C16.7999 31.7484 18.9489 29.5995 21.5997 29.5995C24.2506 29.5995 26.3995 31.7484 26.3995 34.3993Z" fill="white"/>
<defs>
<linearGradient id="paint0_linear_965_3215" x1="-1.04742e-07" y1="30" x2="60.8447" y2="30.0691" gradientUnits="userSpaceOnUse">
<stop stop-color="#59A5E3"/>
<stop offset="1" stop-color="#8045FF"/>
</linearGradient>
<linearGradient id="paint1_linear_965_3215" x1="-1.04742e-07" y1="30" x2="60.8447" y2="30.0691" gradientUnits="userSpaceOnUse">
<stop stop-color="#59A5E3"/>
<stop offset="1" stop-color="#8045FF"/>
</linearGradient>
</defs>
</svg>
