<svg width="604" height="392" viewBox="0 0 604 392" fill="none" xmlns="http://www.w3.org/2000/svg">
<path d="M404.447 323.588C439.445 312.652 522.756 274.863 565.153 156.002C566.068 153.442 566.864 150.835 567.534 148.193L572.461 128.764C572.461 128.764 542.328 168.099 524.303 179.479C506.281 190.858 509.122 202.365 509.122 202.365C515.319 256.701 467.105 226.252 454.728 269.811C443.61 308.929 410.986 321.442 404.447 323.588Z" fill="url(#paint0_linear_1557_14210)"/>
<path d="M403.305 323.942C465.817 349.6 465.962 300.949 491.316 299.085C516.667 297.222 524.516 287.763 528.123 277.113C531.733 266.464 529.722 264.368 556.125 249.047C582.532 233.724 572.463 128.764 572.463 128.764L567.536 148.193C566.866 150.835 566.069 153.442 565.154 156.002C522.757 274.863 439.447 312.653 404.449 323.588C404.428 323.594 404.41 323.6 404.388 323.608C404.335 323.624 404.283 323.641 404.234 323.657C403.886 323.769 403.631 323.846 403.476 323.891C403.43 323.905 403.393 323.915 403.365 323.923C403.354 323.926 403.344 323.928 403.337 323.931C403.325 323.936 403.314 323.938 403.305 323.942V323.942Z" fill="url(#paint1_linear_1557_14210)"/>
<path d="M531.346 226.244C540.26 225.098 550.577 222.038 557.664 216.072C558.695 215.179 559.662 214.214 560.543 213.175C559.54 214.085 558.474 214.898 557.365 215.627C551.786 219.179 545.284 220.74 538.869 221.495C536.634 221.745 534.376 221.888 532.132 221.896C531.821 221.896 531.485 221.894 531.213 221.881L531.349 226.24L531.346 226.244Z" fill="white"/>
<path d="M533.969 224.783C533.229 221.909 532.705 218.935 532.31 215.98C531.537 209.989 531.332 203.847 532.322 197.866C532.836 194.857 533.685 191.908 535.008 189.169C532.539 193.062 531.1 197.593 530.25 202.171C529.001 209.127 528.948 216.284 529.63 223.32C529.716 224.138 529.797 224.893 529.924 225.727L533.969 224.785L533.969 224.783Z" fill="white"/>
<path d="M494.734 270.889C503.125 270.823 513.02 269.131 520.199 264.381C521.245 263.666 522.24 262.878 523.16 262.014C522.132 262.737 521.057 263.36 519.952 263.903C514.405 266.518 508.221 267.18 502.204 267.106C499.832 267.058 497.428 266.901 495.088 266.542L494.734 270.887L494.734 270.889Z" fill="white"/>
<path d="M496.824 270.338C497.845 259.902 500.779 248.035 506.892 239.588C507.823 238.344 508.838 237.162 509.949 236.07C506.239 238.942 503.316 242.816 500.949 246.957C497.397 253.264 494.941 260.208 493.241 267.311C493.05 268.139 492.876 268.903 492.718 269.762L496.826 270.338L496.824 270.338Z" fill="white"/>
<path d="M445.488 307.559C452.978 308.192 461.883 307.502 468.64 303.859C469.623 303.309 470.564 302.691 471.445 301.997C470.47 302.536 469.465 302.985 468.438 303.358C462.269 305.457 455.604 305.09 449.296 303.959C448.294 303.765 447.209 303.539 446.234 303.267L445.488 307.559Z" fill="white"/>
<path d="M450.452 304.962C450.895 299.461 451.868 294.01 453.093 288.638C453.505 286.827 453.974 285.028 454.46 283.228C451.392 289.517 448.749 296.059 446.756 302.822C446.64 303.245 446.471 303.803 446.366 304.241L450.452 304.96L450.452 304.962Z" fill="white"/>
<path d="M403.331 324.047L403.363 324.038L403.314 323.824C403.284 323.832 403.272 323.835 403.272 323.835L403.331 324.047V324.047Z" fill="white"/>
<path d="M567.388 148.15C566.355 152.181 564.706 156.612 563.204 160.508C560.592 167.266 557.828 173.963 554.819 180.536C550.03 191 544.649 201.322 538.757 211.147C518.981 244.448 492.387 273.301 460.782 294.236C446.244 303.982 430.838 312.335 414.722 318.784C411.678 320.034 408.068 321.332 404.948 322.333C399.33 324.179 393.671 325.907 387.975 327.469C385.66 328.099 383.232 328.703 380.896 329.241L380.95 329.563L383.015 329.256C387.828 328.496 392.606 327.443 397.348 326.297C468.824 309.252 525.997 249.939 555.686 180.964C558.588 174.315 561.257 167.559 563.738 160.728C565.108 156.878 566.773 152.26 567.69 148.235L567.39 148.151L567.388 148.15Z" fill="white"/>
<path d="M416.021 321.806C434.955 303.199 476.493 251.44 467.668 161.835C467.479 159.905 467.201 157.984 466.832 156.083L464.117 142.104C464.117 142.104 456.813 177.123 448.789 190.356C440.767 203.587 446.032 209.947 446.032 209.947C466.308 242.385 426.535 239.117 431.776 270.902C436.48 299.447 419.527 318.264 416.021 321.806Z" fill="url(#paint2_linear_1557_14210)"/>
<path d="M415.401 322.411C462.813 317.873 448.273 286.931 463.812 277.298C479.35 267.667 481.489 259.046 480.577 251.081C479.666 243.115 477.759 242.455 489.918 223.927C502.077 205.397 464.117 142.103 464.117 142.103L466.832 156.082C467.201 157.984 467.48 159.904 467.668 161.835C476.493 251.44 434.956 303.199 416.021 321.806C416.01 321.816 415.999 321.826 415.988 321.838C415.959 321.866 415.932 321.894 415.905 321.921C415.718 322.108 415.579 322.242 415.494 322.322C415.469 322.346 415.449 322.365 415.433 322.379C415.427 322.385 415.422 322.39 415.418 322.393C415.412 322.401 415.405 322.406 415.401 322.411V322.411Z" fill="url(#paint3_linear_1557_14210)"/>
<path d="M467.328 217.704C472.644 214.007 478.275 208.625 480.981 202.475C481.367 201.565 481.691 200.629 481.938 199.676C481.575 200.588 481.142 201.46 480.657 202.292C478.183 206.407 474.524 209.565 470.677 212.182C469.333 213.086 467.942 213.928 466.519 214.682C466.322 214.786 466.108 214.896 465.932 214.979L467.329 217.701L467.328 217.704Z" fill="white"/>
<path d="M468.55 215.902C467.216 214.324 465.989 212.61 464.849 210.865C462.557 207.318 460.58 203.487 459.409 199.359C458.831 197.277 458.483 195.121 458.499 192.941C458.102 196.236 458.551 199.592 459.388 202.783C460.687 207.616 462.806 212.179 465.355 216.419C465.655 216.91 465.934 217.362 466.265 217.85L468.55 215.904L468.55 215.902Z" fill="white"/>
<path d="M457.505 258.255C462.813 255.416 468.588 251.045 471.718 245.636C472.167 244.833 472.562 244.001 472.887 243.146C472.451 243.948 471.956 244.702 471.417 245.415C468.681 248.924 464.954 251.405 461.111 253.363C459.59 254.123 458.016 254.824 456.422 255.376L457.505 258.253L457.505 258.255Z" fill="white"/>
<path d="M458.67 257.206C456.18 250.239 454.474 241.726 455.816 234.325C456.033 233.225 456.322 232.136 456.699 231.073C455.207 234.132 454.516 237.566 454.258 240.985C453.899 246.173 454.428 251.401 455.485 256.478C455.613 257.068 455.732 257.611 455.89 258.209L458.671 257.206L458.67 257.206Z" fill="white"/>
<path d="M437.264 297.949C442.21 295.855 447.658 292.45 450.853 287.885C451.311 287.208 451.723 286.502 452.074 285.768C451.617 286.435 451.114 287.055 450.573 287.634C447.287 291.023 442.945 293.011 438.599 294.394C437.905 294.605 437.148 294.823 436.447 294.976L437.264 297.949Z" fill="white"/>
<path d="M439.634 294.647C438.261 291.006 437.239 287.22 436.402 283.401C436.118 282.113 435.875 280.815 435.643 279.51C435.586 284.526 435.875 289.561 436.643 294.52C436.697 294.827 436.757 295.237 436.822 295.55L439.633 294.645L439.634 294.647Z" fill="white"/>
<path d="M415.449 322.47L415.467 322.453L415.372 322.334C415.355 322.349 415.348 322.355 415.348 322.355L415.449 322.47V322.47Z" fill="white"/>
<path d="M466.719 156.106C467.275 159.009 467.56 162.372 467.778 165.347C468.152 170.509 468.411 175.683 468.477 180.859C468.583 189.1 468.27 197.447 467.483 205.65C464.941 233.386 456.731 260.57 442.958 284.395C436.658 295.429 429.387 305.867 421.092 315.332C419.535 317.141 417.634 319.168 415.953 320.843C412.941 323.888 409.867 326.871 406.72 329.761C405.44 330.932 404.08 332.125 402.758 333.245L402.889 333.431L404.108 332.548C406.936 330.462 409.653 328.201 412.319 325.893C452.581 291.251 471.048 234.535 469.156 180.842C468.999 175.653 468.662 170.473 468.183 165.309C467.896 162.408 467.564 158.92 466.936 156.059L466.72 156.106L466.719 156.106Z" fill="white"/>
<g filter="url(#filter0_d_1557_14210)">
<path d="M85.5825 105.625H431.674C433.813 105.625 435.549 107.45 435.549 109.698V331.95H81.707V109.698C81.707 107.45 83.4433 105.625 85.5825 105.625Z" fill="url(#paint4_linear_1557_14210)"/>
</g>
<path d="M414.903 121.864H103.314C102.029 121.864 100.988 122.962 100.988 124.317V313.258C100.988 314.613 102.029 315.711 103.314 315.711H414.903C416.187 315.711 417.229 314.613 417.229 313.258V124.317C417.229 122.962 416.187 121.864 414.903 121.864Z" fill="white"/>
<g filter="url(#filter1_d_1557_14210)">
<path d="M56.6552 365.441L460.599 365.441C462.738 365.441 464.473 363.612 464.473 361.356L464.473 336.034C464.473 333.778 462.738 331.949 460.599 331.949L56.6552 331.949C54.516 331.949 52.7818 333.778 52.7818 336.034L52.7818 361.356C52.7818 363.612 54.516 365.441 56.6552 365.441Z" fill="url(#paint5_linear_1557_14210)"/>
</g>
<g filter="url(#filter2_d_1557_14210)">
<path d="M419.565 138.509C416.8 136.783 414.494 134.329 412.974 131.347C411.553 128.557 410.85 125.445 411.407 122.118C411.807 119.734 413.478 117.051 415.745 117.456C417.01 117.683 417.974 118.891 418.276 120.204C418.577 121.518 418.32 122.907 417.887 124.18C416.048 129.579 410.926 133.43 405.501 133.955C400.076 134.481 394.564 131.862 391 127.524C395.833 127.288 401.266 126.129 401.786 120.067C402.132 116.043 400.327 112.048 399.838 108.082C399.396 104.499 399.432 100.856 399.904 97.2781C400.85 90.12 403.551 83.2059 407.744 77.4773C409.085 75.6452 410.578 73.937 412.209 72.3862C422.496 62.6051 437.994 59.3595 451.052 64.2506C464.111 69.1418 474.18 81.9618 476.29 96.386C478.399 110.809 472.459 126.225 461.402 135.025C449.758 144.291 432.486 145.896 419.589 138.525L419.565 138.509V138.509Z" fill="url(#paint6_linear_1557_14210)"/>
</g>
<path d="M418.055 91.7719L452.018 83.9431" stroke="white" stroke-width="5" stroke-linecap="round" stroke-linejoin="round"/>
<path d="M421.938 105.358L455.901 97.5295" stroke="white" stroke-width="5" stroke-linecap="round" stroke-linejoin="round"/>
<path d="M425.82 118.945L459.784 111.115" stroke="white" stroke-width="5" stroke-linecap="round" stroke-linejoin="round"/>
<g filter="url(#filter3_d_1557_14210)">
<path d="M254.055 45.4366L177.294 33.4901C172.006 32.6672 167.085 36.5132 166.303 42.0805L148.417 169.425C147.635 174.992 151.288 180.173 156.576 180.996L233.337 192.942C238.625 193.765 243.546 189.919 244.328 184.352L262.214 57.0072C262.996 51.4399 259.343 46.2595 254.055 45.4366Z" fill="url(#paint7_linear_1557_14210)"/>
</g>
<path d="M186.625 79.3963C192.164 80.2583 197.318 76.2299 198.137 70.3988C198.956 64.5676 195.13 59.1417 189.591 58.2798C184.052 57.4178 178.899 61.4461 178.08 67.2773C177.261 73.1084 181.087 78.5343 186.625 79.3963Z" fill="white"/>
<path d="M180.895 120.205C186.433 121.067 191.587 117.038 192.406 111.207C193.225 105.376 189.399 99.9501 183.861 99.0881C178.322 98.2261 173.168 102.254 172.349 108.086C171.53 113.917 175.356 119.343 180.895 120.205Z" fill="white"/>
<path d="M175.164 161.013C180.703 161.875 185.857 157.847 186.676 152.016C187.495 146.185 183.669 140.759 178.13 139.897C172.592 139.035 167.438 143.063 166.619 148.894C165.8 154.726 169.626 160.151 175.164 161.013Z" fill="white"/>
<path d="M213.764 73.2467L221.016 83.5318L241.444 67.5654" stroke="white" stroke-width="5" stroke-linecap="round" stroke-linejoin="round"/>
<path d="M208.03 114.135L215.282 124.422L235.709 108.456" stroke="white" stroke-width="5" stroke-linecap="round" stroke-linejoin="round"/>
<path d="M204.143 153.973L211.395 164.258L231.823 148.293" stroke="white" stroke-width="5" stroke-linecap="round" stroke-linejoin="round"/>
<g filter="url(#filter4_d_1557_14210)">
<path d="M215.488 254.018C215.488 251.257 217.727 249.018 220.488 249.018H232.845C235.606 249.018 237.845 251.257 237.845 254.018V297.98H215.488V254.018Z" fill="url(#paint8_linear_1557_14210)"/>
<path d="M244.367 238.25C244.367 235.489 246.606 233.25 249.367 233.25H261.724C264.485 233.25 266.724 235.489 266.724 238.25V297.979H244.367V238.25Z" fill="url(#paint9_linear_1557_14210)"/>
<path d="M273.246 263.146C273.246 260.385 275.485 258.146 278.246 258.146H290.603C293.364 258.146 295.603 260.385 295.603 263.146V297.98H273.246V263.146Z" fill="url(#paint10_linear_1557_14210)"/>
<path d="M205.242 214.994V297.15H307.71" stroke="url(#paint11_linear_1557_14210)" stroke-width="4" stroke-linecap="round"/>
</g>
<g filter="url(#filter5_d_1557_14210)">
<path d="M134.355 100.477C131.193 105.223 126.483 108.383 121.095 109.379L102.692 112.778C102.242 114.426 101.426 118.019 101.409 122.507C101.376 130.677 103.865 137.824 108.804 143.747C109.288 144.326 109.375 145.165 109.02 145.84C108.712 146.43 108.124 146.787 107.498 146.787C107.407 146.787 107.315 146.778 107.223 146.763C106.988 146.725 101.393 145.749 94.8501 141.449C89.0567 137.644 81.4318 130.426 77.3672 117.456L68.6066 119.075C67.4118 119.295 66.2187 119.403 65.0447 119.403C55.2527 119.403 46.553 111.992 44.8033 101.495C42.845 89.7391 50.3359 78.498 61.5018 76.4344L113.989 66.7406C119.377 65.7444 124.828 67.0299 129.336 70.3588C133.844 73.6877 136.848 78.6463 137.792 84.3191C138.738 89.9918 137.517 95.7305 134.355 100.477V100.477Z" fill="url(#paint12_linear_1557_14210)"/>
<path d="M66.6177 103.345C69.1442 103.345 71.1924 101.189 71.1924 98.5291C71.1924 95.8696 69.1442 93.7136 66.6177 93.7136C64.0911 93.7136 62.043 95.8696 62.043 98.5291C62.043 101.189 64.0911 103.345 66.6177 103.345Z" fill="white"/>
<path d="M91.3169 98.5287C93.8435 98.5287 95.8917 96.3728 95.8917 93.7132C95.8917 91.0537 93.8435 88.8977 91.3169 88.8977C88.7904 88.8977 86.7422 91.0537 86.7422 93.7132C86.7422 96.3728 88.7904 98.5287 91.3169 98.5287Z" fill="white"/>
<path d="M116.934 93.7129C119.461 93.7129 121.509 91.5569 121.509 88.8974C121.509 86.2378 119.461 84.0818 116.934 84.0818C114.408 84.0818 112.359 86.2378 112.359 88.8974C112.359 91.5569 114.408 93.7129 116.934 93.7129Z" fill="white"/>
</g>
<g filter="url(#filter6_d_1557_14210)">
<path d="M322.198 264.251L335.427 256.613C339.323 263.361 345.588 267.893 352.563 269.762L348.611 284.519C337.857 281.637 328.203 274.653 322.198 264.251Z" fill="url(#paint13_linear_1557_14210)"/>
<path d="M348.725 284.455L352.677 269.698C359.653 271.566 367.344 270.775 374.092 266.879L381.73 280.11C371.329 286.115 359.478 287.336 348.725 284.455Z" fill="url(#paint14_linear_1557_14210)"/>
<path d="M381.626 280.169L373.987 266.938C380.736 263.041 385.267 256.779 387.136 249.802L401.892 253.758C399.012 264.509 392.029 274.162 381.626 280.169V280.169Z" fill="url(#paint15_linear_1557_14210)"/>
<path d="M387.132 249.803C389.001 242.828 388.209 235.137 384.313 228.389L397.542 220.751C403.548 231.153 404.77 243.005 401.889 253.759L387.132 249.803V249.803Z" fill="url(#paint16_linear_1557_14210)"/>
<path d="M367.177 215.238L371.129 200.481C381.883 203.363 391.536 210.347 397.543 220.751L384.313 228.389C380.416 221.639 374.152 217.108 367.177 215.238V215.238Z" fill="url(#paint17_linear_1557_14210)"/>
<path d="M345.766 218.055L338.127 204.824C348.53 198.818 360.382 197.598 371.133 200.479L367.181 215.236C360.204 213.366 352.516 214.158 345.766 218.055V218.055Z" fill="url(#paint18_linear_1557_14210)"/>
<path d="M317.857 231.239C320.739 220.486 327.722 210.833 338.123 204.828L345.762 218.059C339.014 221.955 334.482 228.217 332.613 235.195L317.857 231.239V231.239Z" fill="url(#paint19_linear_1557_14210)"/>
<path d="M322.199 264.249C316.192 253.845 314.973 241.994 317.852 231.241L332.608 235.197C330.74 242.172 331.531 249.861 335.428 256.611L322.199 264.249V264.249Z" fill="url(#paint20_linear_1557_14210)"/>
</g>
<g filter="url(#filter7_d_1557_14210)">
<path d="M316.244 157.175C316.077 157.168 315.91 157.138 315.745 157.084L305.485 153.809C304.916 153.627 304.451 153.192 304.213 152.619C303.975 152.044 303.988 151.39 304.249 150.826C304.402 150.495 319.779 117.393 338.62 82.7532C364.067 35.966 383.443 8.75991 396.213 1.89504C399.121 0.332328 400.696 1.14451 401.506 2.10211C402.996 3.86358 402.644 7.08411 400.291 13.215C398.55 17.7535 395.646 23.9761 391.662 31.7129C384.994 44.6614 375.187 62.0915 362.516 83.5183C340.959 119.968 318.254 155.865 318.026 156.224C317.625 156.858 316.945 157.208 316.246 157.175L316.244 157.175Z" fill="url(#paint21_linear_1557_14210)"/>
<path d="M262.046 213.853C261.917 213.85 261.783 213.835 261.648 213.809C259.237 213.36 259.139 210.012 259.088 208.212L259.039 206.474C258.929 202.533 258.815 198.458 258.554 195.011C258.412 193.125 258.247 191.788 258.091 190.843C257.954 191.154 257.804 191.511 257.641 191.921C252.514 204.886 249.608 206.632 247.446 206.572C247.428 206.573 247.412 206.573 247.394 206.569C245.258 206.481 244.291 204.392 243.906 203.152C243.556 202.03 244.136 200.821 245.202 200.455C246.267 200.088 247.413 200.697 247.764 201.819C247.779 201.867 247.794 201.912 247.808 201.954C248.654 201.123 250.646 198.48 253.891 190.274C254.713 188.198 256.24 184.33 258.975 184.863C261.301 185.315 262.026 188.319 262.489 193.353C262.84 197.15 262.975 202.035 263.096 206.346L263.098 206.457C264.332 203.665 265.804 199.778 266.838 197.04C268.011 193.943 269.117 191.017 270.077 188.83C270.627 187.576 272.092 184.248 274.712 184.893C276.539 185.343 277.565 187.456 278.141 191.956C278.502 194.777 278.614 198.049 278.564 200.042C278.547 200.751 278.688 201.172 278.985 201.294C279.925 201.677 282.344 200.846 284.435 198.291C286.212 196.12 288.137 194.958 290.16 194.835C290.281 194.828 290.4 194.825 290.517 194.825C292.853 194.833 293.104 197.687 291.562 199.445V199.445C291.562 199.445 291.574 199.459 291.601 199.482C291.218 199.151 289.795 198.29 287.513 201.082C284.527 204.733 280.419 206.461 277.524 205.283C275.541 204.476 274.44 202.525 274.505 199.932C274.586 196.732 274.263 192.84 273.801 190.542C273.787 190.57 273.776 190.597 273.763 190.627C272.848 192.708 271.761 195.581 270.611 198.624C269.309 202.067 267.96 205.627 266.749 208.332C265.382 211.38 264.074 213.904 262.044 213.849L262.046 213.853Z" fill="url(#paint22_linear_1557_14210)"/>
<path d="M292.137 198.857C291.881 198.837 291.626 198.77 291.383 198.657C290.555 198.268 290.027 197.396 290.043 196.442L290.626 160.41C290.639 159.601 291.041 158.856 291.694 158.429L303.911 150.435C304.482 150.06 305.185 149.974 305.821 150.201L317.144 154.195C317.883 154.457 318.444 155.101 318.624 155.901L321.676 169.388C321.866 170.223 321.613 171.102 321.015 171.684L293.842 198.228C293.372 198.688 292.753 198.906 292.137 198.857V198.857Z" fill="url(#paint23_linear_1557_14210)"/>
</g>
<g filter="url(#filter8_d_1557_14210)">
<path d="M83.8364 287.267C82.9188 287.146 82.0411 286.671 81.4221 285.868C80.1821 284.263 80.4409 281.959 82.0004 280.72L97.1442 268.702C98.7035 267.465 100.972 267.763 102.212 269.368C103.452 270.972 103.193 273.276 101.634 274.515L86.4902 286.533C85.7115 287.151 84.7539 287.387 83.8364 287.267Z" fill="url(#paint24_linear_1557_14210)"/>
<path d="M141.377 195.055C115.628 191.675 92.3727 210.13 89.4354 236.274C86.4982 262.418 104.991 286.355 130.74 289.734C156.489 293.113 179.747 274.658 182.684 248.513C185.622 222.367 167.128 198.434 141.377 195.055ZM162.396 262.453C158.344 253.86 150.875 247.087 141.579 244.203C146.039 242.64 149.444 238.603 150.016 233.508C150.819 226.359 145.743 219.792 138.702 218.868C131.661 217.944 125.28 223.007 124.477 230.157C123.904 235.251 126.317 240.051 130.299 242.723C120.638 243.121 111.882 247.762 106.047 255.056C103.868 249.879 102.94 244.09 103.609 238.135C105.654 219.939 121.84 207.092 139.761 209.444C157.682 211.796 170.555 228.456 168.511 246.652C167.841 252.608 165.66 257.988 162.396 262.453Z" fill="url(#paint25_linear_1557_14210)"/>
<path d="M89.1799 290.022L79.6519 277.69C78.9078 276.727 77.5462 276.549 76.6106 277.291L2.91763 335.772C1.98199 336.514 1.82666 337.897 2.5707 338.86L12.0987 351.191C12.8428 352.154 14.2044 352.333 15.14 351.59L88.833 293.11C89.7686 292.367 89.9239 290.985 89.1799 290.022Z" fill="url(#paint26_linear_1557_14210)"/>
</g>
<defs>
<filter id="filter0_d_1557_14210" x="71.707" y="101.625" width="373.844" height="246.324" filterUnits="userSpaceOnUse" color-interpolation-filters="sRGB">
<feFlood flood-opacity="0" result="BackgroundImageFix"/>
<feColorMatrix in="SourceAlpha" type="matrix" values="0 0 0 0 0 0 0 0 0 0 0 0 0 0 0 0 0 0 127 0" result="hardAlpha"/>
<feOffset dy="6"/>
<feGaussianBlur stdDeviation="5"/>
<feComposite in2="hardAlpha" operator="out"/>
<feColorMatrix type="matrix" values="0 0 0 0 0 0 0 0 0 0 0 0 0 0 0 0 0 0 0.1 0"/>
<feBlend mode="normal" in2="BackgroundImageFix" result="effect1_dropShadow_1557_14210"/>
<feBlend mode="normal" in="SourceGraphic" in2="effect1_dropShadow_1557_14210" result="shape"/>
</filter>
<filter id="filter1_d_1557_14210" x="42.7812" y="327.949" width="431.691" height="53.4917" filterUnits="userSpaceOnUse" color-interpolation-filters="sRGB">
<feFlood flood-opacity="0" result="BackgroundImageFix"/>
<feColorMatrix in="SourceAlpha" type="matrix" values="0 0 0 0 0 0 0 0 0 0 0 0 0 0 0 0 0 0 127 0" result="hardAlpha"/>
<feOffset dy="6"/>
<feGaussianBlur stdDeviation="5"/>
<feComposite in2="hardAlpha" operator="out"/>
<feColorMatrix type="matrix" values="0 0 0 0 0 0 0 0 0 0 0 0 0 0 0 0 0 0 0.1 0"/>
<feBlend mode="normal" in2="BackgroundImageFix" result="effect1_dropShadow_1557_14210"/>
<feBlend mode="normal" in="SourceGraphic" in2="effect1_dropShadow_1557_14210" result="shape"/>
</filter>
<filter id="filter2_d_1557_14210" x="385" y="61" width="93.7109" height="89.1602" filterUnits="userSpaceOnUse" color-interpolation-filters="sRGB">
<feFlood flood-opacity="0" result="BackgroundImageFix"/>
<feColorMatrix in="SourceAlpha" type="matrix" values="0 0 0 0 0 0 0 0 0 0 0 0 0 0 0 0 0 0 127 0" result="hardAlpha"/>
<feOffset dx="-2" dy="3"/>
<feGaussianBlur stdDeviation="2"/>
<feComposite in2="hardAlpha" operator="out"/>
<feColorMatrix type="matrix" values="0 0 0 0 0 0 0 0 0 0 0 0 0 0 0 0 0 0 0.05 0"/>
<feBlend mode="normal" in2="BackgroundImageFix" result="effect1_dropShadow_1557_14210"/>
<feBlend mode="normal" in="SourceGraphic" in2="effect1_dropShadow_1557_14210" result="shape"/>
</filter>
<filter id="filter3_d_1557_14210" x="146.312" y="32.3792" width="122.008" height="167.674" filterUnits="userSpaceOnUse" color-interpolation-filters="sRGB">
<feFlood flood-opacity="0" result="BackgroundImageFix"/>
<feColorMatrix in="SourceAlpha" type="matrix" values="0 0 0 0 0 0 0 0 0 0 0 0 0 0 0 0 0 0 127 0" result="hardAlpha"/>
<feOffset dx="2" dy="3"/>
<feGaussianBlur stdDeviation="2"/>
<feComposite in2="hardAlpha" operator="out"/>
<feColorMatrix type="matrix" values="0 0 0 0 0 0 0 0 0 0 0 0 0 0 0 0 0 0 0.05 0"/>
<feBlend mode="normal" in2="BackgroundImageFix" result="effect1_dropShadow_1557_14210"/>
<feBlend mode="normal" in="SourceGraphic" in2="effect1_dropShadow_1557_14210" result="shape"/>
</filter>
<filter id="filter4_d_1557_14210" x="201.242" y="211.994" width="114.469" height="94.156" filterUnits="userSpaceOnUse" color-interpolation-filters="sRGB">
<feFlood flood-opacity="0" result="BackgroundImageFix"/>
<feColorMatrix in="SourceAlpha" type="matrix" values="0 0 0 0 0 0 0 0 0 0 0 0 0 0 0 0 0 0 127 0" result="hardAlpha"/>
<feOffset dx="2" dy="3"/>
<feGaussianBlur stdDeviation="2"/>
<feComposite in2="hardAlpha" operator="out"/>
<feColorMatrix type="matrix" values="0 0 0 0 0 0 0 0 0 0 0 0 0 0 0 0 0 0 0.05 0"/>
<feBlend mode="normal" in2="BackgroundImageFix" result="effect1_dropShadow_1557_14210"/>
<feBlend mode="normal" in="SourceGraphic" in2="effect1_dropShadow_1557_14210" result="shape"/>
</filter>
<filter id="filter5_d_1557_14210" x="43.4922" y="65.4119" width="101.613" height="88.375" filterUnits="userSpaceOnUse" color-interpolation-filters="sRGB">
<feFlood flood-opacity="0" result="BackgroundImageFix"/>
<feColorMatrix in="SourceAlpha" type="matrix" values="0 0 0 0 0 0 0 0 0 0 0 0 0 0 0 0 0 0 127 0" result="hardAlpha"/>
<feOffset dx="3" dy="3"/>
<feGaussianBlur stdDeviation="2"/>
<feComposite in2="hardAlpha" operator="out"/>
<feColorMatrix type="matrix" values="0 0 0 0 0 0 0 0 0 0 0 0 0 0 0 0 0 0 0.05 0"/>
<feBlend mode="normal" in2="BackgroundImageFix" result="effect1_dropShadow_1557_14210"/>
<feBlend mode="normal" in="SourceGraphic" in2="effect1_dropShadow_1557_14210" result="shape"/>
</filter>
<filter id="filter6_d_1557_14210" x="311.363" y="197.989" width="95.0156" height="94.9548" filterUnits="userSpaceOnUse" color-interpolation-filters="sRGB">
<feFlood flood-opacity="0" result="BackgroundImageFix"/>
<feColorMatrix in="SourceAlpha" type="matrix" values="0 0 0 0 0 0 0 0 0 0 0 0 0 0 0 0 0 0 127 0" result="hardAlpha"/>
<feOffset dx="-1" dy="3"/>
<feGaussianBlur stdDeviation="2"/>
<feComposite in2="hardAlpha" operator="out"/>
<feColorMatrix type="matrix" values="0 0 0 0 0 0 0 0 0 0 0 0 0 0 0 0 0 0 0.05 0"/>
<feBlend mode="normal" in2="BackgroundImageFix" result="effect1_dropShadow_1557_14210"/>
<feBlend mode="normal" in="SourceGraphic" in2="effect1_dropShadow_1557_14210" result="shape"/>
</filter>
<filter id="filter7_d_1557_14210" x="237.805" y="0.0168457" width="166.594" height="220.836" filterUnits="userSpaceOnUse" color-interpolation-filters="sRGB">
<feFlood flood-opacity="0" result="BackgroundImageFix"/>
<feColorMatrix in="SourceAlpha" type="matrix" values="0 0 0 0 0 0 0 0 0 0 0 0 0 0 0 0 0 0 127 0" result="hardAlpha"/>
<feOffset dx="-2" dy="3"/>
<feGaussianBlur stdDeviation="2"/>
<feComposite in2="hardAlpha" operator="out"/>
<feColorMatrix type="matrix" values="0 0 0 0 0 0 0 0 0 0 0 0 0 0 0 0 0 0 0.05 0"/>
<feBlend mode="normal" in2="BackgroundImageFix" result="effect1_dropShadow_1557_14210"/>
<feBlend mode="normal" in="SourceGraphic" in2="effect1_dropShadow_1557_14210" result="shape"/>
</filter>
<filter id="filter8_d_1557_14210" x="0.101562" y="193.656" width="188.891" height="165.393" filterUnits="userSpaceOnUse" color-interpolation-filters="sRGB">
<feFlood flood-opacity="0" result="BackgroundImageFix"/>
<feColorMatrix in="SourceAlpha" type="matrix" values="0 0 0 0 0 0 0 0 0 0 0 0 0 0 0 0 0 0 127 0" result="hardAlpha"/>
<feOffset dx="2" dy="3"/>
<feGaussianBlur stdDeviation="2"/>
<feComposite in2="hardAlpha" operator="out"/>
<feColorMatrix type="matrix" values="0 0 0 0 0 0 0 0 0 0 0 0 0 0 0 0 0 0 0.05 0"/>
<feBlend mode="normal" in2="BackgroundImageFix" result="effect1_dropShadow_1557_14210"/>
<feBlend mode="normal" in="SourceGraphic" in2="effect1_dropShadow_1557_14210" result="shape"/>
</filter>
<linearGradient id="paint0_linear_1557_14210" x1="518.598" y1="355.664" x2="403.702" y2="326.528" gradientUnits="userSpaceOnUse">
<stop stop-color="#9BE299"/>
<stop offset="1" stop-color="#8BC1F1"/>
</linearGradient>
<linearGradient id="paint1_linear_1557_14210" x1="538.927" y1="362.954" x2="402.204" y2="328.283" gradientUnits="userSpaceOnUse">
<stop stop-color="#9BE299"/>
<stop offset="1" stop-color="#8BC1F1"/>
</linearGradient>
<linearGradient id="paint2_linear_1557_14210" x1="479.9" y1="223.384" x2="398.807" y2="239.178" gradientUnits="userSpaceOnUse">
<stop stop-color="#5DC895"/>
<stop offset="1" stop-color="#2F92ED"/>
</linearGradient>
<linearGradient id="paint3_linear_1557_14210" x1="494.429" y1="220.81" x2="397.931" y2="239.614" gradientUnits="userSpaceOnUse">
<stop stop-color="#5DC895"/>
<stop offset="1" stop-color="#2F92ED"/>
</linearGradient>
<linearGradient id="paint4_linear_1557_14210" x1="70.7379" y1="331.95" x2="435.549" y2="331.95" gradientUnits="userSpaceOnUse">
<stop stop-color="#CAECFF"/>
<stop offset="1" stop-color="#5FB9EA"/>
</linearGradient>
<linearGradient id="paint5_linear_1557_14210" x1="464.473" y1="348.695" x2="47.0667" y2="342.866" gradientUnits="userSpaceOnUse">
<stop stop-color="#59B3E3"/>
<stop offset="1" stop-color="#2F80ED"/>
</linearGradient>
<linearGradient id="paint6_linear_1557_14210" x1="388.343" y1="143.16" x2="476.711" y2="143.16" gradientUnits="userSpaceOnUse">
<stop stop-color="#D5F3D4"/>
<stop offset="1" stop-color="#B9E0F5"/>
</linearGradient>
<linearGradient id="paint7_linear_1557_14210" x1="144.028" y1="179.043" x2="243.119" y2="192.96" gradientUnits="userSpaceOnUse">
<stop stop-color="#C8FCC6"/>
<stop offset="1" stop-color="#FDDE78"/>
</linearGradient>
<linearGradient id="paint8_linear_1557_14210" x1="226.958" y1="313.458" x2="213.448" y2="256.915" gradientUnits="userSpaceOnUse">
<stop stop-color="#B4DCFF"/>
<stop offset="1" stop-color="#C8AFFF"/>
</linearGradient>
<linearGradient id="paint9_linear_1557_14210" x1="255.837" y1="318.442" x2="233.141" y2="246.593" gradientUnits="userSpaceOnUse">
<stop stop-color="#B4DCFF"/>
<stop offset="1" stop-color="#C8AFFF"/>
</linearGradient>
<linearGradient id="paint10_linear_1557_14210" x1="284.716" y1="310.572" x2="275.608" y2="263.716" gradientUnits="userSpaceOnUse">
<stop stop-color="#B4DCFF"/>
<stop offset="1" stop-color="#C8AFFF"/>
</linearGradient>
<linearGradient id="paint11_linear_1557_14210" x1="257.812" y1="323.122" x2="249.106" y2="223.59" gradientUnits="userSpaceOnUse">
<stop stop-color="#B4DCFF"/>
<stop offset="1" stop-color="#C8AFFF"/>
</linearGradient>
<linearGradient id="paint12_linear_1557_14210" x1="138.104" y1="66.4118" x2="44.4922" y2="66.4118" gradientUnits="userSpaceOnUse">
<stop stop-color="#E7DAF6"/>
<stop offset="1" stop-color="#F5ACA3"/>
</linearGradient>
<linearGradient id="paint13_linear_1557_14210" x1="343.217" y1="252.115" x2="322.198" y2="264.251" gradientUnits="userSpaceOnUse">
<stop stop-color="#FFD8D8"/>
<stop offset="1" stop-color="#FDDE78"/>
</linearGradient>
<linearGradient id="paint14_linear_1557_14210" x1="355.095" y1="295.488" x2="381.73" y2="280.11" gradientUnits="userSpaceOnUse">
<stop stop-color="#E7DAF6"/>
<stop offset="1" stop-color="#F5ACA3"/>
</linearGradient>
<linearGradient id="paint15_linear_1557_14210" x1="381.626" y1="280.169" x2="408.262" y2="264.79" gradientUnits="userSpaceOnUse">
<stop stop-color="#E7DAF6"/>
<stop offset="1" stop-color="#F5ACA3"/>
</linearGradient>
<linearGradient id="paint16_linear_1557_14210" x1="382.221" y1="218.368" x2="405.165" y2="247.617" gradientUnits="userSpaceOnUse">
<stop stop-color="#B4DCFF"/>
<stop offset="1" stop-color="#C8AFFF"/>
</linearGradient>
<linearGradient id="paint17_linear_1557_14210" x1="382.794" y1="193.746" x2="361.775" y2="205.882" gradientUnits="userSpaceOnUse">
<stop stop-color="#CAECFF"/>
<stop offset="1" stop-color="#5FB9EA"/>
</linearGradient>
<linearGradient id="paint18_linear_1557_14210" x1="365.589" y1="188.969" x2="338.127" y2="204.824" gradientUnits="userSpaceOnUse">
<stop stop-color="#D5F3D4"/>
<stop offset="1" stop-color="#B9E0F5"/>
</linearGradient>
<linearGradient id="paint19_linear_1557_14210" x1="338.948" y1="204.351" x2="311.487" y2="220.206" gradientUnits="userSpaceOnUse">
<stop stop-color="#C8FCC6"/>
<stop offset="1" stop-color="#FDDE78"/>
</linearGradient>
<linearGradient id="paint20_linear_1557_14210" x1="327.838" y1="225.475" x2="306.819" y2="237.611" gradientUnits="userSpaceOnUse">
<stop stop-color="#FBF0B5"/>
<stop offset="1" stop-color="#FDDE78"/>
</linearGradient>
<linearGradient id="paint21_linear_1557_14210" x1="301.001" y1="157.285" x2="403.367" y2="156.632" gradientUnits="userSpaceOnUse">
<stop stop-color="#FFD8D8"/>
<stop offset="1" stop-color="#FDDE78"/>
</linearGradient>
<linearGradient id="paint22_linear_1557_14210" x1="242.516" y1="214.367" x2="294.718" y2="213.12" gradientUnits="userSpaceOnUse">
<stop stop-color="#FFD8D8"/>
<stop offset="1" stop-color="#FDDE78"/>
</linearGradient>
<linearGradient id="paint23_linear_1557_14210" x1="288.844" y1="198.783" x2="321.114" y2="199.465" gradientUnits="userSpaceOnUse">
<stop stop-color="#FFD8D8"/>
<stop offset="1" stop-color="#FDDE78"/>
</linearGradient>
<linearGradient id="paint24_linear_1557_14210" x1="79.609" y1="286.712" x2="101.058" y2="289.122" gradientUnits="userSpaceOnUse">
<stop stop-color="#FFD8D8"/>
<stop offset="1" stop-color="#FDDE78"/>
</linearGradient>
<linearGradient id="paint25_linear_1557_14210" x1="81.226" y1="283.235" x2="177.567" y2="294.059" gradientUnits="userSpaceOnUse">
<stop stop-color="#FFD8D8"/>
<stop offset="1" stop-color="#FDDE78"/>
</linearGradient>
<linearGradient id="paint26_linear_1557_14210" x1="0.844656" y1="336.626" x2="13.6551" y2="352.769" gradientUnits="userSpaceOnUse">
<stop stop-color="#FFD8D8"/>
<stop offset="1" stop-color="#FDDE78"/>
</linearGradient>
</defs>
</svg>
